<?xml version="1.0" standalone="no"?>
<!DOCTYPE svg PUBLIC "-//W3C//DTD SVG 1.1//EN" "http://www.w3.org/Graphics/SVG/1.1/DTD/svg11.dtd" >
<svg xmlns="http://www.w3.org/2000/svg">
<metadata>Generated by IcoMoon</metadata>
<defs>
<font id="icomoon" horiz-adv-x="1024">
<font-face units-per-em="1024" ascent="960" descent="-64" />
<missing-glyph horiz-adv-x="1024" />
<glyph unicode="&#x20;" horiz-adv-x="512" d="" />
<glyph unicode="&#xe900;" glyph-name="accesory46" d="M896 864h-768c-70.688 0-128-57.312-128-128v-576c0-70.688 57.312-128 128-128h768c70.688 0 128 57.312 128 128v576c0 70.688-57.312 128-128 128zM832 160c0-35.28-28.72-64-64-64h-640c-35.28 0-64 28.72-64 64v576c0 35.28 28.72 64 64 64h640c35.28 0 64-28.72 64-64v-128h-96c-88.376 0-160-71.624-160-160s71.624-160 160-160h96v-128zM960 160c0-35.28-28.72-64-64-64h-17.752c11 18.904 17.752 40.56 17.752 64v128h64v-128zM960 352h-224c-52.936 0-96 43.064-96 96s43.064 96 96 96h224v-192zM960 608h-64v128c0 23.44-6.752 45.096-17.752 64h17.752c35.28 0 64-28.72 64-64v-128zM704 448c0-17.688 14.312-32 32-32s32 14.312 32 32-14.312 32-32 32-32-14.312-32-32z" />
<glyph unicode="&#xe901;" glyph-name="air6" d="M1024 632.517c0-177.142-853.959-372.667-918.622-372.667-36.253 0-77.386 8.356-77.386 41.778 0 11.167 12.889 27.307 35.505 46.764l-0.025-0.013-59.944 106.509c-8.117 14.42-1.682 32.688 13.678 38.838l10.302 4.124c18.671 7.476 39.685 6.362 57.459-3.047l108.823-57.612c42.371 25.132 90.435 51.444 141.094 77.35l-212.070 137.586c-16.777 10.886-16.598 35.505 0.336 46.144l17.348 10.899c28.873 18.139 63.973 23.497 96.942 14.801l352.795-93.057c110 43.661 209.453 73.46 268.32 73.46 15.721 0 31.466-0.417 46.661-1.503l-106.541-48.096-2.55-35.837 164.459 75.6c39.422-9.402 63.414-26.949 63.414-62.024zM594.81 326.733l131.594-149.491c8.020-9.111 21.081-11.853 32.085-6.738l17.624 8.192c32.139 14.938 51.068 48.811 46.952 84.010l-16.474 140.86c-1.021 8.716-9.865 14.232-18.143 11.318l-187.914-66.195c-9.146-3.224-12.134-14.676-5.724-21.956z" />
<glyph unicode="&#xe902;" glyph-name="airplane68" d="M1024 465.281c0-235.172-173.463-430.589-399.159-465.045 1.904 10.437 2.438 21.246 1.156 32.199 0 0-1.349 11.525-3.112 26.609 80.131 13.652 152.477 50.42 209.82 103.299-3.442 2.863-6.87 6.576-10.25 11.505-15.229 22.222 4.685 44.271 4.685 63.704 0 19.061-38.428 17.493-39.836 30.118-4.856 43.721 26.83 44.316 43.722 61.209s-16.697 55.298-38.393 52.82c-21.844-2.332-83.329 10.088-77.71 57.13 6.845 57.295-72.997 52.241-84.43 78.984-16.667 38.981 11.040 86.794 47.178 97.656 51.187 15.385 101.612 57.143 97.673 103.628-4.462 52.647-28.292 100.128-67.54 128.333-40.843 16.546-84.883 26.778-130.96 29.36-41.122-1.626-77.277-10.765-75.627-29.592 4.044-46.137 135.242-58.12 113.226-101.249-11.478-22.483-97.621-54.215-81.533-87.676 10.464-21.76 36.216-3.11 26.602-44.885-4.424-19.222-21.278-55.338-47.198-57.669-26.505-2.475-48.576 67.743-120.722 70.045-34.107 1.091-82.156-53.215-41.357-91.742 24.707-23.331 71.069 28.041 84.753-12.089 9.643-28.279-1.298-87.684 43.706-112.511 16.406-9.050 41.556-16.94 66.429-29.579-36.919-7.539-82.283-21.608-135.851-42.242l-45.133 11.908c18.894 15.728 49.592 26.8 41.869 61.167-11.346 50.492-99.017 31.45-159.458 91.889-18.542 18.539-58.092 80.101-57.93 154.063-30.128-57.227-47.275-122.308-47.275-191.349 0-21.251 1.621-42.133 4.739-62.528-0.711 0.012-1.414 0.136-2.123 0.136-19.034 0-37.702-3.999-55.003-11.56-3.822 24.102-5.861 48.789-5.861 73.951 0 259.405 211.046 470.458 470.449 470.458 259.408 0.003 470.454-211.049 470.454-470.454zM671.103 328.159l-114.899-52.815 1.782 25.036 74.434 33.601c-10.616 0.76-21.616 1.049-32.599 1.049-41.126 0-110.609-20.818-187.459-51.322l-246.474 65.012c-23.033 6.077-47.556 2.334-67.73-10.34l-12.119-7.613c-11.831-7.432-11.957-24.633-0.236-32.239l148.16-96.122c-35.393-18.101-68.973-36.484-98.575-54.041l-76.027 40.251c-12.419 6.574-27.101 7.354-40.143 2.13l-7.196-2.885c-10.732-4.295-15.228-17.058-9.556-27.133l41.9-74.404c-15.802-13.595-24.807-24.869-24.807-32.671 0-23.351 28.736-29.187 54.065-29.187 45.176 0 641.785 136.602 641.785 260.359-0.003 24.509-16.765 36.767-44.306 43.334zM419.557 86.533l131.284 46.247c5.783 2.038 11.962-1.817 12.675-7.908l11.51-98.409c2.876-24.591-10.35-48.255-32.801-58.693l-12.313-5.722c-7.69-3.574-16.812-1.658-22.416 4.705l-91.939 104.441c-4.476 5.087-2.391 13.086 4.001 15.338z" />
<glyph unicode="&#xe903;" glyph-name="airplane73" d="M410.91 434.292c-63.004-10.354-116.284-25.391-155.948-42.653-14.024-6.111-26.902-24.353-28.139-39.614-0.797-10.055-1.212-20.243-1.212-30.497 0-10.246 0.423-20.434 1.212-30.489 1.229-15.253 14.115-33.503 28.139-39.606 39.664-17.287 92.92-32.307 155.948-42.669 15.087-2.474 26.254 8.245 25.2 23.489-2.026 29.617-3.089 59.558-3.089 89.258 0 29.708 1.063 59.666 3.089 89.258 1.054 15.269-10.105 25.98-25.2 23.523zM465.968-29.683c14.281-5.53 21.256 2.333 16.091 16.739-15.352 42.844-27.184 93.426-35.388 147.678-2.267 15.128-16.075 28.953-31.22 31.228-54.244 8.203-104.826 20.052-147.678 35.404-14.398 5.148-22.277-1.835-16.747-16.1 38.219-98.408 116.575-176.772 214.941-214.95zM532.193 668.82c-17.287-39.68-32.316-92.911-42.661-155.94-2.491-15.103 8.203-26.263 23.464-25.208 29.617 2.043 59.566 3.089 89.275 3.089 29.717 0 59.641-1.046 89.25-3.089 15.261-1.054 25.964 10.105 23.481 25.208-10.346 62.995-25.391 116.259-42.645 155.94-6.111 14.016-24.353 26.894-39.614 28.139-10.047 0.822-20.235 1.212-30.481 1.212-10.271 0-20.442-0.415-30.505-1.212-15.228-1.254-33.461-14.132-39.564-28.139zM465.968 672.731c-98.366-38.202-176.722-116.558-214.933-214.958-5.513-14.265 2.341-21.239 16.747-16.091 42.852 15.369 93.434 27.184 147.67 35.388 15.136 2.283 28.953 16.108 31.228 31.236 8.203 54.252 20.035 104.834 35.388 147.678 5.173 14.406-1.818 22.269-16.1 16.747zM757.82 508.313c2.267-15.12 16.091-28.944 31.228-31.236 54.236-8.195 104.826-20.019 147.67-35.363 14.406-5.165 22.294 1.827 16.739 16.091-38.202 98.383-116.542 176.739-214.95 214.941-14.256 5.522-21.231-2.35-16.091-16.747 15.369-42.852 27.201-93.443 35.404-147.687zM977.686 352c-1.221 15.261-14.132 33.511-28.147 39.614-39.664 17.279-92.944 32.291-155.948 42.636-15.078 2.491-26.246-8.212-25.2-23.481 2.034-29.6 3.080-59.566 3.080-89.258 0-29.708-1.046-59.666-3.080-89.283-1.046-15.261 10.121-25.972 25.2-23.473 63.004 10.346 116.284 25.391 155.948 42.653 14.040 6.103 26.91 24.386 28.147 39.614 0.839 10.072 1.212 20.243 1.212 30.514-0.008 10.238-0.423 20.434-1.212 30.464zM729.93 321.528c0 32.639-1.212 64.125-3.496 94.24-1.138 15.244-14.705 28.82-29.941 29.949-30.115 2.258-61.576 3.496-94.248 3.496-32.623 0-64.116-1.221-94.223-3.496-15.253-1.146-28.828-14.705-29.974-29.949-2.258-30.107-3.496-61.6-3.496-94.24 0-32.631 1.229-64.125 3.496-94.24 1.162-15.236 14.721-28.853 29.974-29.966 30.099-2.25 61.592-3.496 94.223-3.496s64.133 1.237 94.248 3.496c15.244 1.171 28.82 14.73 29.941 29.966 2.292 30.115 3.496 61.6 3.496 94.24zM936.727 201.349c-42.844-15.386-93.426-27.201-147.678-35.404-15.128-2.258-28.944-16.091-31.228-31.228-8.203-54.227-20.035-104.834-35.379-147.678-5.165-14.389 1.818-22.294 16.075-16.739 98.408 38.202 176.764 116.55 214.958 214.933 5.53 14.29-2.341 21.264-16.747 16.116zM691.504 155.392c-29.6-2.034-59.558-3.097-89.291-3.097-29.7 0-59.608 1.063-89.241 3.097-15.253 1.046-25.964-10.121-23.473-25.208 10.362-63.020 25.391-116.276 42.645-155.948 6.103-14.024 24.361-26.902 39.606-28.139 10.055-0.83 20.226-1.221 30.505-1.221 10.246 0 20.426 0.44 30.472 1.221 15.269 1.221 33.503 14.107 39.614 28.139 17.287 39.672 32.307 92.928 42.661 155.948 2.458 15.095-8.245 26.254-23.498 25.208zM311.83 775.506c2.964-2.267 5.455-1.387 6.833-0.415-0.996-1.27-2.723-3.778-5.347-8.345 0 0-9.324-14.016-6.227-18.707l0.058-0.083c3.139-4.758 19.637-1.686 19.637-1.686 5.214 0.623 8.195 1.221 9.806 1.619-1.47-0.888-3.255-2.823-2.333-6.41l8.394-28.156c0.133-0.423 0.307-0.797 0.473-1.162l22.111 18.997 1.81 23.921c0.133 1.835 0.515 4.102 0.515 4.102s4.409 3.006 5.787 3.628l78.016 47.942 40.776-118.136c1.113-3.155 4.052-3.969 6.601-1.793l21.43 18.35c2.549 2.192 4.152 6.634 3.595 9.98l-21.206 125.65 74.686 52.268c13.758 9.673 24.727 24.511 24.477 33.221-0.1 3.288-1.212 6.626-3.006 9.665l-0.042 0.075c-2.076 2.848-4.7 5.198-7.722 6.568-7.855 3.637-25.864-0.54-40.179-9.366l-77.492-47.958-107.085 69.165c-2.848 1.81-7.539 2.101-10.57 0.614l-25.308-12.43c-3.022-1.486-3.446-4.5-0.98-6.775l92.421-84.143-74.869-52.716c-1.096-1.030-5.613-3.911-5.613-3.911s-2.25 0.573-3.994 1.179l-22.692 7.788-26.171-12.828c0.274-0.299 0.531-0.606 0.905-0.872l22.501-18.84zM65.387 388.002c1.27 11.583 3.67 22.734 6.202 34.458 0.947 4.384 1.885 8.751 2.765 13.119 0.971 5.713 2.674 11.051 4.484 16.706 0.905 2.831 1.802 5.654 2.624 8.494l7.73 24.693c2.35 5.505 4.592 11.018 6.825 16.49 4.326 10.603 8.403 20.617 13.028 30.099l11.458 21.82c1.046 1.926 2.142 4.035 3.23 6.144 2.541 4.891 4.932 9.515 7.622 13.36 3.363 5.081 6.36 9.798 9.316 14.456 5.414 8.527 10.537 16.59 15.95 23.929l25.59 32.922c5.663 6.344 11.624 12.745 17.353 18.906l8.195 8.834c6.418 7.39 13.36 13.625 20.069 19.653l24.934 22.443c8.602 6.8 15.983 12.363 22.011 16.905 2.001 1.511 3.853 2.906 5.555 4.201l10.362-14.248c-1.901-1.328-3.952-2.748-6.186-4.284-6.41-4.426-14.223-9.823-22.991-16.174l-0.913-0.714-23.431-19.562c-6.402-5.256-13.65-11.217-20.758-18.815l-24.735-24.627-0.947-1.030-25.416-30.024c-6.053-7.481-11.442-15.228-16.648-22.725-2.964-4.268-5.978-8.602-9.125-12.92-3.687-4.758-6.692-10.030-9.59-15.112-1.013-1.769-2.026-3.554-3.080-5.314l-11.815-20.334c-5.223-9.656-9.656-19.321-13.933-28.662-2.449-5.347-4.924-10.744-7.539-16.141l-0.681-1.627-8.444-23.564c-0.897-2.665-1.752-4.974-2.599-7.265-2.117-5.737-4.525-12.247-5.97-19.288-0.872-3.545-1.951-7.672-3.031-11.824-2.798-10.728-5.671-21.754-7.473-33.378zM283.774 759.132c0 0-3.786-2.881-10.902-8.286-7.107-5.48-17.544-13.111-30.821-23.614-6.601-5.945-13.916-12.529-21.879-19.687-7.921-7.174-16.731-14.755-24.627-23.855-8.203-8.909-17.071-18.242-26.097-28.347-8.32-10.711-17.063-21.97-26.196-33.719-8.818-11.948-16.689-25.374-25.499-38.709-4.6-6.559-8.004-14.016-11.94-21.289-3.853-7.315-7.747-14.746-11.691-22.285-7.448-15.278-13.517-31.751-20.533-48.116-2.665-8.527-5.355-17.146-8.087-25.847-2.524-8.743-5.879-17.328-7.431-26.52-3.653-18.192-8.453-36.45-9.781-55.556-0.913-9.515-2.383-18.989-2.823-28.604-0.1-9.648-0.183-19.346-0.282-29.069 0.066-4.866-0.299-9.723 0.125-14.597l1.378-14.613c1.038-9.748 1.627-19.545 3.064-29.252l5.97-28.936c1.129-4.783 1.694-9.715 3.288-14.381l4.567-14.074c3.205-9.308 5.779-18.848 9.515-27.923l12.272-26.786c3.678-9.092 8.926-17.353 14.040-25.64 5.223-8.411 9.715-16.382 15.51-25.009 5.663-7.481 11.3-14.921 16.913-22.344 6.244-7.265 12.795-14.398 19.13-21.513 13.293-13.492 26.811-26.204 41.382-37.256 28.812-22.427 59.674-39.805 90.188-52.907 30.696-12.87 61.094-20.891 89.349-26.561 14.281-2.026 27.832-4.816 40.951-5.53 6.535-0.556 12.903-1.113 19.080-1.627 6.202-0.158 12.222-0.274 18.059-0.407 4.608-0.042 9.084-0.249 13.434-0.249 1.171 0 2.341 0.017 3.496 0.050 5.43 0.249 10.678 0.49 15.726 0.722 5.032 0.224 9.864 0.448 14.464 0.656 4.592 0.515 8.976 0.988 13.127 1.453 8.295 0.996 15.743 1.561 22.128 2.615 6.402 1.121 11.824 2.076 16.232 2.84 8.801 1.544 13.492 2.366 13.492 2.366s-4.724-0.623-13.584-1.793c-4.417-0.581-9.872-1.295-16.291-2.15-6.418-0.805-13.874-1.038-22.161-1.677-4.152-0.282-8.511-0.573-13.094-0.88-4.608-0.025-9.407-0.033-14.414-0.050-5.007-0.025-10.204-0.033-15.618-0.058-5.397 0.058-10.985 0.598-16.756 0.888-5.754 0.374-11.707 0.756-17.827 1.154-6.078 0.789-12.33 1.586-18.757 2.416-12.903 1.229-26.13 4.575-40.046 7.132-27.5 6.75-56.868 15.867-86.119 29.6-29.086 13.982-58.113 32.008-84.774 54.626-13.459 11.126-25.914 23.929-37.879 37.115-5.596 6.833-11.234 13.708-16.897 20.625-5.297 7.639-10.611 15.327-15.958 23.024-17.86 30.796-35.338 64.374-43.574 100.268l-3.736 13.277c-1.304 4.392-1.611 9.059-2.483 13.567l-4.417 27.118c-0.947 9.1-1.079 18.267-1.669 27.342l-0.739 13.592c-0.216 4.517 0.365 9.059 0.498 13.576 0.457 9.017 0.913 17.993 1.378 26.927 0.789 8.893 2.574 17.677 3.77 26.445 1.901 17.611 7.19 34.416 11.234 51.072 1.727 8.428 5.256 16.291 7.929 24.278 2.856 7.929 5.663 15.801 8.453 23.581 7.215 14.904 13.401 29.866 20.882 43.699 3.961 6.809 7.855 13.526 11.699 20.143 3.927 6.551 7.29 13.293 11.84 19.18 8.735 11.965 16.423 24.037 25.042 34.707 8.843 10.462 17.337 20.484 25.416 30.016 8.843 8.826 17.229 17.179 25.125 25.034 7.68 8.195 15.709 14.406 22.933 20.426 7.199 6.036 13.825 11.566 19.803 16.565 13.285 9.623 24.345 17.021 31.577 22.144 7.34 5.090 11.251 7.821 11.251 7.821l-30.331 41.656zM562.067-53.306v0z" />
<glyph unicode="&#xe904;" glyph-name="avatar19" d="M265.81 458.584l3.714 3.475 3.731-3.475c32.636-30.728 68.819-47.671 101.72-47.671 34.563 0 70.259 15.031 103.231 43.433l2.759 2.335 7.242-3.528c6.137-5.595 17.146-13.627 22.114-16.047l6.791-3.307-0.742-0.742 2.597-1.555c6.235-3.678 12.884-7.254 20.471-11.056 7.639-3.375 14.218-5.943 21.222-8.24 1.343-0.477 33.9-10.982 71.036-28.204l6.632-2.017c35.263-13.438 50.186-32.38 50.719-33.037 54.75-81.241 63.962-258.683 64.849-278.523-0.406-27.727-8.278-34.942-10.378-36.303-122.695-54.927-308.076-69.199-343.949-71.463l-0.981-0.056-1.043 0.268c-1.202 0.389-2.45 0.562-3.97 0.562h-0.018l-1.263-0.053c-9.798-0.689-17.932-1.010-25.501-1.010h-5.943c-22.344 1.346-222.227 14.43-350.146 71.34-2.592 1.096-10.178 9.833-10.699 35.278 0.018 1.894 6.606 193.448 64.054 278.791 2.804 3.534 18.453 21.716 49.664 33.67 27.456 8.417 95.344 30.949 132.481 57.828 1.564 0.954 3.122 2.544 4.765 4.208 2.692 2.966 8.34 9.035 14.84 15.099zM648.141 410.669l-5.074 1.467c-8.311 3.858-17.084 7.675-26.137 11.371 12.767 5.978 23.236 11.848 31.017 17.508 1.275 0.724 2.512 1.997 3.678 3.219 2.83 3.013 6.576 7.074 10.997 11.203l2.371 2.176 2.3-2.226c24.441-22.944 51.387-35.534 75.969-35.534 25.854 0 52.524 11.194 77.068 32.377l1.77 1.452 4.936-2.388c4.526-4.182 12.749-10.131 16.427-11.968l4.244-2.053-0.495-0.53 2.686-1.558c4.671-2.774 9.657-5.445 15.246-8.202 5.728-2.547 10.643-4.491 15.809-6.19 1.007-0.339 25.041-8.063 52.769-20.904l4.898-1.526c25.271-9.633 36.256-22.915 37.334-24.296 40.85-60.585 47.426-191.84 48.045-206.444-0.3-20.285-5.925-25.501-7.336-26.405-76.859-34.395-187.169-47.303-233.589-51.408-4.194 60.234-19.048 202.13-68.704 275.944l-2.106 2.527c-10.060 12.469-32.095 30.119-64.121 42.39zM619.386 629.945l0.869 1.034c3.887 2.839 5.799 7.242 5.057 11.786-9.233 55.448-3.251 78.702-1.166 84.53 16.094 49.382 66.74 72.397 76.644 76.473 2.017 0.763 5.869 1.92 9.975 2.609l1.237 0.309 7.639 0.398 0.071-0.53 2.297 0.203c1.735 0.141 3.396 0.398 4.547 0.654l2.562 0.574c1.629-0.053 21.628-2.627 50.613-11.494l20.409-7.030c37.104-10.955 54.291-31.417 57.475-35.564 29.798-33.847 21.822-84.734 14.36-112.093-0.813-3.387-0.318-6.827 1.629-9.636l1.646-2.123c2.103-2.804 3.993-13.971-2.459-38.073-1.202-7.304-3.926-13.167-7.816-17.066-1.59-1.643-2.636-3.784-3.007-6.258-10.081-59.074-62.994-125.124-118.698-125.124-47.356 0-101.329 60.782-111.021 125.124-0.389 2.456-1.431 4.597-3.181 6.553-3.926 4.094-6.491 10.069-8.063 19.089-4.712 16.713-5.207 30.225-1.617 35.655zM207.561 693.616l1.281 1.484c4.986 3.599 7.392 9.277 6.491 15.084-12.504 75.133-4.353 106.388-1.523 114.231 21.725 66.748 90.235 97.927 103.699 103.47 2.812 1.090 8.046 2.662 13.565 3.546l1.484 0.345 11.3 0.636 0.035-0.724 2.433 0.256c2.265 0.212 4.456 0.539 7.047 1.069l2.565 0.61c2.103-0.018 28.54-3.351 68.436-15.553l27.456-9.436c50.133-14.828 73.495-42.591 77.775-48.11 40.32-45.783 29.568-114.664 19.561-151.659-1.151-4.261-0.459-8.717 1.944-12.334l2.229-2.865c3.678-4.924 5.060-21.407-3.145-51.912-1.661-9.966-5.36-18.038-10.788-23.395-1.964-2.123-3.263-4.889-3.82-7.993-13.644-79.871-85.237-169.211-160.626-169.211-64.086 0-137.157 82.204-150.342 169.155-0.433 3.095-1.717 5.943-3.996 8.384-5.472 5.678-8.982 13.856-11.123 26.004-6.344 22.877-6.971 41.277-1.938 48.916z" />
<glyph unicode="&#xe905;" glyph-name="avatar83" d="M512 256c158.816 0 288 157.952 288 352s-129.216 352-288 352c-78.304 0-151.488-37.568-206.016-105.76-52.896-66.080-81.984-153.568-81.984-246.272 0-194.016 129.184-351.968 288-351.968zM512 895.968c123.488 0 224-129.184 224-288 0-158.784-100.512-288-224-288s-224 129.216-224.032 288c0 158.816 100.512 288 224.032 288zM736 320c-17.696 0-32-14.304-32-32s14.304-32 32-32c123.488 0 224-100.512 224-224 0-17.632-14.368-32-32-32h-832c-17.632 0-32 14.368-32 32 0 123.488 100.512 224 224 224 17.696 0 32 14.304 32 32s-14.304 32-32 32c-158.816 0-288-129.184-288-288 0-52.928 43.072-96 96-96h832c52.928 0 96 43.072 96 96 0 158.784-129.184 288-288 288z" />
<glyph unicode="&#xe906;" glyph-name="bank11" d="M942.284 500.133h-860.567v-407.882h-74.181v-120.466h1008.937v120.466h-74.181l-0.008 407.882zM306.91 92.251h-126.495v314.133c0 34.871 28.373 63.252 63.252 63.252 34.871 0 63.243-28.373 63.243-63.252v-314.133zM575.243 92.251h-126.487v314.133c0 34.871 28.373 63.252 63.243 63.252 34.862 0 63.243-28.373 63.243-63.252v-314.133zM840.653 92.251h-126.495v314.133c0 34.871 28.373 63.252 63.252 63.252 34.862 0 63.235-28.373 63.235-63.252v-314.141h0.008zM991.617 586.964v34.698l-480.366 302.553-478.867-301.565v-35.686h-32.383v-50.305h1024v50.305h-32.383zM512 793.026c43.238 0 78.299-35.052 78.299-78.299s-35.060-78.299-78.299-78.299-78.299 35.052-78.299 78.299c0 43.247 35.060 78.299 78.299 78.299z" />
<glyph unicode="&#xe907;" glyph-name="banking2" d="M977.028 29.313h-930.491c-25.708 0-46.537-20.828-46.537-46.558 0-25.687 20.828-46.515 46.537-46.515h930.469c25.708 0 46.537 20.828 46.537 46.515-0.022 25.73-20.85 46.558-46.515 46.558zM104.685 150.295c-25.708 0-46.537-20.828-46.537-46.537s20.828-46.558 46.537-46.558h814.172c25.708 0 46.537 20.85 46.537 46.558s-20.828 46.537-46.537 46.537h-11.612v418.742h11.612c12.876 0 23.246 10.414 23.246 23.246s-10.414 23.246-23.246 23.246h-814.172c-12.854 0-23.246-10.414-23.246-23.246s10.414-23.246 23.246-23.246h11.634v-418.72h-11.634zM814.172 569.036v-418.72h-139.566v418.72h139.566zM581.532 569.036v-418.72h-139.566v418.72h139.566zM209.349 569.036h139.566v-418.72h-139.566v418.72zM46.537 657.36h930.469c0.153 0 0.327 0 0.458 0 25.73 0 46.537 20.828 46.537 46.537 0 20.436-13.159 37.756-31.438 44.031l-461.662 207.737c-12.135 5.447-26.013 5.447-38.17 0l-465.278-209.349c-20.022-9.020-31.024-30.763-26.406-52.201 4.597-21.438 23.551-36.754 45.491-36.754z" />
<glyph unicode="&#xe908;" glyph-name="book227" d="M890.281 100.531c0-48.41-31.524-89.603-75.136-104.113v332.152h-49.38c-65.011 0-117.896 52.884-117.896 117.896 0 65.014 52.884 117.901 117.896 117.901h49.38v335.214c43.604-14.51 75.136-55.7 75.136-104.113v-231.107h54.84v231.107c0 90.862-73.654 164.531-164.531 164.531h-537.198c-90.87 0-164.531-73.667-164.531-164.531v-694.938c0-90.86 73.659-164.531 164.531-164.531h537.198c90.87 0 164.531 73.667 164.531 164.531v228.040h-54.84v-228.040zM936.865 521.201h-159.626c-26.171 0-49.211-13.576-62.5-34.043 20.564-2.12 36.6-19.492 36.6-40.612 0-21.051-15.931-38.364-36.39-40.581 13.315-20.291 36.255-33.725 62.29-33.725h159.626c4.57 0 8.274 3.704 8.274 8.274v132.408c0 4.572-3.704 8.279-8.274 8.279z" />
<glyph unicode="&#xe909;" glyph-name="briefcase50" d="M921.6 729.6h-204.8v102.4l-102.4 102.4h-204.8l-102.4-102.4v-102.4h-204.8c-56.32 0-102.4-46.080-102.4-102.4v-563.2c0-56.32 46.080-102.4 102.4-102.4h819.2c56.32 0 102.4 46.080 102.4 102.4v563.2c0 56.32-46.080 102.4-102.4 102.4zM409.6 832h204.8v-102.4h-204.8v102.4zM435.2 140.8l-179.2 179.2 71.68 71.68 107.52-107.52 266.24 266.24 71.68-71.68-337.92-337.92z" />
<glyph unicode="&#xe90a;" glyph-name="briefcase61" d="M922.986 659.401h-145.86v89.287c0 86.17-71.215 155.098-157.43 155.098h-215.37c-86.193 0-157.452-68.927-157.452-155.098v-89.287h-145.815c-55.451 0-101.059-43.926-101.059-99.377v-466.213c0-55.451 45.608-101.597 101.059-101.597h821.927c55.474 0 101.014 46.168 101.014 101.597v466.213c0 55.451-45.541 99.377-101.014 99.377zM381.253 748.688c0 12.624 10.427 23.095 23.051 23.095h215.37c12.624 0 23.028-10.494 23.028-23.095v-89.287h-261.449v89.287zM755.017 421.272l-277.481-277.436c-11.772-11.749-27.714-18.342-44.375-18.342-16.638 0-32.603 6.592-44.375 18.342l-137.496 137.518c-24.508 24.508-24.508 64.241 0 88.771h0.022c11.749 11.727 27.714 18.342 44.375 18.342s32.58-6.615 44.352-18.342l81.91-81.91c6.189-6.189 16.234-6.189 22.423 0l221.895 221.85c11.727 11.749 27.692 18.364 44.375 18.364 16.638 0 32.603-6.615 44.375-18.364v-0.022c24.486-24.553 24.486-64.308 0-88.771z" />
<glyph unicode="&#xe90b;" glyph-name="burger20" d="M248.078 579.28c-6.113 0-12.102 2.482-16.446 6.793-4.344 4.344-6.827 10.333-6.827 16.48 0 6.113 2.482 12.099 6.827 16.446 4.344 4.344 10.333 6.827 16.446 6.827s12.133-2.482 16.446-6.827c4.344-4.344 6.827-10.333 6.827-16.446 0-6.144-2.482-12.133-6.827-16.48-4.313-4.31-10.333-6.793-16.446-6.793zM511.991 579.28c-6.11 0-12.099 2.482-16.443 6.793-4.344 4.344-6.827 10.333-6.827 16.48 0 6.113 2.482 12.099 6.827 16.446 4.344 4.344 10.333 6.827 16.443 6.827 6.116 0 12.133-2.482 16.48-6.827 4.316-4.344 6.793-10.333 6.793-16.446 0-6.144-2.479-12.133-6.793-16.48-4.347-4.31-10.367-6.793-16.48-6.793zM775.903 579.28c-6.116 0-12.102 2.482-16.449 6.793-4.341 4.344-6.824 10.333-6.824 16.48 0 6.113 2.482 12.099 6.824 16.446 4.344 4.344 10.333 6.827 16.449 6.827 6.144 0 12.133-2.482 16.446-6.827 4.341-4.344 6.827-10.333 6.827-16.446 0-6.144-2.486-12.133-6.827-16.48-4.31-4.31-10.299-6.793-16.446-6.793zM386.939 696.574c-6.113 0-12.102 2.482-16.446 6.799-4.344 4.341-6.827 10.33-6.827 16.474 0 6.113 2.482 12.133 6.827 16.446 4.313 4.344 10.333 6.827 16.446 6.827 6.144 0 12.133-2.482 16.446-6.827 4.344-4.313 6.827-10.333 6.827-16.446 0-6.144-2.482-12.133-6.827-16.474-4.313-4.316-10.302-6.799-16.446-6.799zM637.043 696.574c-6.116 0-12.102 2.482-16.449 6.799-4.341 4.341-6.824 10.33-6.824 16.474 0 6.113 2.482 12.133 6.824 16.446 4.344 4.344 10.333 6.827 16.449 6.827 6.144 0 12.133-2.482 16.446-6.827 4.341-4.313 6.827-10.333 6.827-16.446 0-6.144-2.486-12.133-6.827-16.474-4.31-4.316-10.299-6.799-16.446-6.799zM967.233 204.263c8.502 13.65 13.449 29.727 13.449 46.958 0 30.67-15.577 57.769-39.225 73.815 16.201 17.424 26.143 40.743 26.143 66.358 0 22.373-7.584 42.996-20.3 59.47 44.867 17.725 76.701 61.49 76.701 112.581 0 86.823-54.852 167.548-154.444 227.306-95.871 57.524-222.857 89.203-357.553 89.203-134.703 0-261.688-31.679-357.559-89.203-99.595-59.758-154.444-140.483-154.444-227.306 0-51.091 31.837-94.857 76.701-112.581-12.716-16.474-20.3-37.097-20.3-59.47 0-25.616 9.955-48.925 26.155-66.349-23.658-16.046-39.238-43.148-39.238-73.824 0-17.231 4.946-33.308 13.452-46.958-27.794-7.18-56.77-26.205-56.77-76.648 0-61.521 44.535-111.569 99.278-111.569h825.443c54.744 0 99.278 50.049 99.278 111.569 0 50.446-28.973 69.468-56.767 76.648zM102.946 391.395c0 28.135 22.894 51.026 51.032 51.026h716.043c28.135 0 51.029-22.891 51.029-51.026 0-5.309-0.822-10.429-2.33-15.245-18.807 2.538-29.814 10.709-43.11 20.62-18.336 13.666-41.159 30.68-83.847 30.68s-65.505-17.008-83.844-30.68c-16.080-11.984-28.781-21.451-56.028-21.451s-39.948 9.467-56.028 21.451c-18.339 13.669-41.159 30.68-83.847 30.68s-65.508-17.008-83.847-30.68c-16.080-11.984-28.778-21.451-56.028-21.451-27.254 0-39.955 9.467-56.038 21.451-18.339 13.669-41.162 30.68-83.853 30.68s-65.514-17.008-83.853-30.677c-13.296-9.911-24.309-18.084-43.126-20.62-1.505 4.81-2.324 9.933-2.324 15.242zM876.693 340.849c-2.188-0.289-4.406-0.487-6.668-0.487h-164.172c11.928 5.741 21.405 12.763 29.891 19.087 16.080 11.984 28.778 21.451 56.028 21.451 27.248 0 39.948-9.467 56.028-21.451 8.245-6.15 17.427-12.958 28.892-18.6zM597.942 340.359h-171.84c11.928 5.741 21.405 12.763 29.891 19.087 16.080 11.984 28.778 21.451 56.028 21.451 27.248 0 39.952-9.467 56.031-21.451 8.481-6.321 17.96-13.346 29.888-19.087zM318.188 340.359h-164.206c-2.275 0-4.499 0.199-6.693 0.49 11.481 5.641 20.679 12.446 28.933 18.596 16.083 11.984 28.784 21.451 56.038 21.451s39.958-9.467 56.038-21.451c8.484-6.321 17.963-13.346 29.891-19.087zM132.465 293.814h759.069c23.49 0 42.602-19.105 42.602-42.595s-19.108-42.602-42.602-42.602h-759.069c-23.49 0-42.602 19.108-42.602 42.602 0 23.49 19.112 42.595 42.602 42.595zM46.545 563.445c0 69.831 46.825 136.381 131.845 187.395 88.744 53.245 207.22 82.569 333.61 82.569 126.383 0 244.86-29.324 333.607-82.569 85.023-51.011 131.848-117.565 131.848-187.395 0-41.066-33.41-74.479-74.473-74.479h-781.964c-41.066 0-74.473 33.41-74.473 74.479zM924.722 62.591h-825.443c-29.078 0-52.733 29.168-52.733 65.024 0 20.815 3.671 34.459 52.733 34.459h825.443c49.062 0 52.733-13.644 52.733-34.459 0-35.856-23.658-65.024-52.733-65.024z" />
<glyph unicode="&#xe90c;" glyph-name="bus26" d="M180.147-11.984c0-28.731 23.287-52.016 52.016-52.016h28.711c28.729 0 52.016 23.285 52.016 52.016v99.688h-132.742v-99.688zM711.112-11.984c0-28.731 23.285-52.016 52.016-52.016h28.709c28.731 0 52.016 23.285 52.016 52.016v99.688h-132.742v-99.688zM845.785 960h-655.094l-105.358-405.656v-447.677h853.332v447.829l-92.88 405.503zM303.407 877.094c0 14.373 11.643 26.018 26.018 26.018h365.17c14.357 0 26-11.643 26-26.018v-4.874c0-14.355-11.643-25.998-26.020-25.998h-365.152c-14.373 0-26.018 11.643-26.018 26.018v4.855zM230.492 246.689c-33.224 0-60.15 26.928-60.15 60.15s26.928 60.15 60.15 60.15c33.224 0 60.15-26.928 60.15-60.15 0.002-33.222-26.926-60.15-60.15-60.15zM570.271 599.705c-23.816 0-43.669-16.1-49.836-37.926h-337.064l57.723 227.556h547.383l52.152-227.556h-78.037c-6.181 21.826-26.036 37.926-49.832 37.926h-142.488zM783.757 246.689c-33.224 0-60.15 26.928-60.15 60.15s26.93 60.15 60.15 60.15c33.224 0 60.15-26.928 60.15-60.15s-26.946-60.15-60.15-60.15zM700.766 677.49c0-32.32-26.2-58.52-58.52-58.52s-58.52 26.2-58.52 58.52c0 32.32 26.2 58.52 58.52 58.52s58.52-26.2 58.52-58.52z" />
<glyph unicode="&#xe90d;" glyph-name="bus55" d="M32.008 672.026h32.008v-191.992h-32.008c-17.694 0-32.008 14.246-32.008 31.994v128.003c0 17.6 14.314 31.994 32.008 31.994zM991.992 672.026h-32.034v-191.992h32.034c17.667 0 32.008 14.246 32.008 31.994v128.003c0 17.6-14.3 31.994-32.008 31.994zM895.997 736.001v-575.988c0-35.388-28.614-64.002-64.002-64.002v-64.002c0-35.401-28.614-64.002-64.002-64.002h-64.015c-35.375 0-64.002 28.667-64.002 64.002v64.002h-255.966v-64.002c0-35.401-28.627-64.002-64.002-64.002h-63.975c-35.388 0-64.002 28.667-64.002 64.002v64.002c-35.375 0-64.002 28.667-64.002 64.002v575.988c-0.027 106.003 85.988 191.992 191.978 191.992h383.997c106.003 0 191.992-85.962 191.992-191.992zM384.010 799.989h255.993v64.002h-255.993v-64.002zM320.008 223.987c0 35.428-28.627 64.002-63.975 64.002-35.375 0-64.002-28.614-64.002-64.002 0-35.348 28.627-64.002 64.002-64.002 35.334 0.013 63.975 28.681 63.975 64.002zM831.995 223.987c0 35.428-28.614 64.002-64.002 64.002s-64.002-28.614-64.002-64.002c0-35.348 28.654-64.002 64.002-64.002 35.401 0.013 64.002 28.681 64.002 64.002zM831.995 736.001h-639.99v-383.997h639.99v383.997z" />
<glyph unicode="&#xe90e;" glyph-name="businessman288" d="M383.203 949.191c-99.687 7.592-107.653-148.044-53.179-204.392 5.42-7.164 13.116-14.047 21.756-18.641 0.973-1.279 2.244-2.415 4.010-3.266 114.174-55.062 156.995 216.438 27.414 226.298zM576.006 622.521c-20.36 43.047-53.041 87.453-102.58 96.591-2.3 0.426-4.063-0.287-5.748-1.050-3.915 1.291-8.564 0.676-11.606-3.499-18.631-25.564-39.652-50.602-55.246-78.274-2.838 5.075-5.724 10.052-8.579 14.779 1.347 0.584 2.582 1.454 3.322 3.003 4.637 9.707 7.008 21.306 5.982 32.066-0.015 0.148-0.124 0.265-0.153 0.404 0.124 2.218-0.905 4.464-3.402 5.033-14.719 3.351-31.555-0.265-46.252-2.959-1.683-0.306-2.383-1.503-2.592-2.828-0.902-0.817-1.493-1.921-0.934-3.312 3.895-9.736 7.886-19.592 14.884-27.46 0.535-0.603 1.16-0.545 1.739-0.875-3.392-4.64-6.575-9.996-9.505-15.645-18.12 25.588-39.234 50.152-61.537 71.978-2.381 2.325-5.474 2.103-8.18 0.992-56.275 2.609-89.359-44.294-108.499-97.476-1.323-2.116-2.091-4.246-2.303-6.407-11.657-34.687-17.629-71.271-20.258-98.116-0.496-5.024 2.137-8.158 5.692-9.423-0.214-2.706 0.871-5.593 4.328-7.013 133.048-54.51 289.501-44.1 423.945 0.18 3.857-1.61 8.518-1.323 11.674 1.904 22.689 23.195-13.595 105.007-24.192 127.407zM759.715 544.408c-99.687 7.592-107.65-148.047-53.179-204.392 5.423-7.164 13.119-14.047 21.758-18.641 0.97-1.279 2.244-2.415 4.007-3.266 114.177-55.064 156.997 216.436 27.414 226.298zM952.518 217.737c-20.362 43.047-53.041 87.456-102.583 96.591-2.298 0.426-4.063-0.287-5.746-1.050-3.915 1.291-8.564 0.676-11.609-3.499-18.631-25.564-39.652-50.602-55.244-78.274-2.838 5.072-5.724 10.052-8.579 14.779 1.345 0.584 2.582 1.454 3.322 3.003 4.635 9.705 7.008 21.306 5.979 32.063-0.015 0.148-0.124 0.265-0.156 0.406 0.124 2.218-0.902 4.464-3.402 5.033-14.719 3.351-31.555-0.265-46.249-2.959-1.685-0.306-2.385-1.505-2.595-2.828-0.902-0.817-1.493-1.921-0.934-3.312 3.895-9.736 7.886-19.592 14.886-27.46 0.537-0.603 1.157-0.545 1.736-0.875-3.39-4.64-6.575-9.999-9.503-15.645-18.12 25.585-39.237 50.152-61.537 71.978-2.381 2.325-5.476 2.103-8.182 0.992-56.275 2.609-89.359-44.294-108.501-97.476-1.32-2.116-2.091-4.246-2.3-6.407-11.66-34.687-17.632-71.268-20.26-98.116-0.494-5.024 2.137-8.158 5.695-9.42-0.214-2.706 0.871-5.593 4.328-7.013 133.046-54.51 289.501-44.1 423.943 0.178 3.859-1.61 8.52-1.32 11.674 1.906 22.697 23.193-13.588 105.005-24.185 127.405zM1019.886 582.827c-1.928 7.801-7.613 14.201-17.469 13.167-21.782-2.286-43.793-2.862-65.809-3.317-16.423 184.492-192.351 380.020-390.661 346.201-18.619-3.171-14.232-33.634 4.44-32.849 177.858 7.489 333.406-142.011 348.29-314.454-18.821-0.613-37.59-1.549-56.112-4.027-3.942-0.53-7.334-2.466-9.911-5.114-7.548-3.137-13.201-13.016-8.795-21.714 25.972-51.263 60.024-97.447 94.057-143.648 7.487-10.164 26.259-14.332 32.766 0 20.304 44.737 36.73 103.383 68.45 141.25 7.008 8.365 5.717 17.906 0.754 24.503zM4.333 298.612c2.069-7.764 7.871-14.060 17.705-12.846 21.739 2.682 43.733 3.66 65.739 4.516 19.784-184.163 199.242-376.456 396.903-339.031 18.558 3.511 13.617 33.889-5.038 32.764-177.693-10.728-335.938 135.915-353.961 308.057 18.806 0.958 37.556 2.232 56.029 5.050 3.932 0.601 7.288 2.599 9.816 5.294 7.489 3.275 12.961 13.252 8.399 21.87-26.901 50.782-61.79 96.338-96.657 141.909-7.669 10.026-26.517 13.853-32.759-0.596-19.485-45.102-34.843-104.034-65.868-142.471-6.855-8.494-5.391-18.011-0.309-24.516z" />
<glyph unicode="&#xe90f;" glyph-name="camera3" d="M512 550.4c-84.838 0-153.6-68.792-153.6-153.6 0-84.838 68.762-153.6 153.6-153.6 84.818 0 153.6 68.762 153.6 153.6 0 84.808-68.782 153.6-153.6 153.6zM921.6 704h-122.88c-16.896 0-35.103 13.107-40.438 29.143l-31.764 95.324c-5.356 16.026-23.542 29.133-40.438 29.133h-348.16c-16.896 0-35.103-13.107-40.438-29.143l-31.764-95.324c-5.356-16.026-23.542-29.133-40.438-29.133h-122.88c-56.32 0-102.4-46.080-102.4-102.4v-460.8c0-56.32 46.080-102.4 102.4-102.4h819.2c56.32 0 102.4 46.080 102.4 102.4v460.8c0 56.32-46.080 102.4-102.4 102.4zM512 140.8c-141.384 0-256 114.616-256 256 0 141.373 114.616 256 256 256 141.363 0 256-114.627 256-256 0-141.384-114.637-256-256-256zM885.76 529.992c-19.784 0-35.84 16.036-35.84 35.84 0 19.784 16.056 35.84 35.84 35.84 19.804 0 35.84-16.056 35.84-35.84 0-19.804-16.046-35.84-35.84-35.84z" />
<glyph unicode="&#xe910;" glyph-name="car166" d="M936.875 697.541v-116.119h-46.317v256.377l-60.090 60.088h-636.937l-60.088-60.088v-256.377h-46.317v116.119h-87.127v-149.167h105.64l-93.739-91.634v-282.403h32.765v-176.224h158.595v176.224h617.475v-176.224h158.597v176.224h31.264v282.403l-93.741 91.634h107.143v149.167h-87.125zM253.62 777.712h516.761v-198.291h-516.761v198.291zM287.23 280.18h-164.386v102.607h164.386v-102.607zM649.549 265.369h-275.096v147.613h275.096v-147.613zM901.158 280.18h-164.386v102.607h164.386v-102.607z" />
<glyph unicode="&#xe911;" glyph-name="car179" d="M1006.19 247.399l-171.322-145.889v-52.369c0-11.208-9.536-18.906-20.746-18.906h-114.27c-11.21 0-20.744 8.031-20.744 18.906v117.449c0 6.19 3.177 12.717 8.031 15.894l209.3 129.997 20.746 276.055c0 23.925 18.906 42.83 42.83 42.83s42.832-18.906 42.832-41.157l20.744-298.307c1.671-24.092-1.34-31.787-17.402-44.503zM184.382 350.292v206.29c0 20.746 3.179 34.967 12.715 55.546l101.555 210.973c11.21 23.925 42.83 44.336 69.767 44.336h287.265c28.442 0 60.398-18.906 71.272-44.336l101.555-210.973c9.536-20.746 12.715-36.473 12.715-55.546v-206.456c0-8.031-8.031-15.894-15.894-15.894h-80.809c-9.536 0-15.894 8.031-15.894 15.894v51.028h-431.65v-50.863c0-8.031-8.031-15.894-15.894-15.894h-80.809c-7.863 0-15.894 8.032-15.894 15.894zM734.987 564.613c-28.442 0-50.859-23.925-50.859-50.861s22.252-50.861 50.859-50.861c28.442 0 50.861 22.252 50.861 50.861s-22.419 50.861-50.861 50.861zM276.4 618.486h472.808l-69.767 145.891c-14.221 28.442-26.936 34.967-55.544 34.967h-223.523c-28.442 0-41.157-6.19-53.873-34.967l-70.101-145.891zM239.927 513.92c0-26.936 22.252-50.861 50.861-50.861s50.861 22.252 50.861 50.861-22.252 50.861-50.861 50.861c-28.609-0.002-50.861-23.925-50.861-50.861zM338.303 180.811l-209.3 129.997-20.746 276.055c1.506 25.431-18.906 44.336-42.83 44.336s-44.336-18.906-44.336-42.663l-20.746-298.474c-1.506-23.925 1.506-31.619 17.4-44.336l171.322-145.889v-52.369c0-11.208 9.536-18.906 20.746-18.906h115.943c11.21 0 20.746 8.031 20.746 18.906v117.449c-0.335 6.192-3.513 12.382-8.198 15.894z" />
<glyph unicode="&#xe912;" glyph-name="check70" d="M0 960v-1024h1024v1024h-1024zM936.233 23.767h-848.46v848.46h848.46v-848.46zM793.487 598.742l-67.715 55.831-267.127-323.945-166.848 133.831-54.915-68.461 234.386-187.999z" />
<glyph unicode="&#xe913;" glyph-name="check-box" d="M761.745 122.543h-622.115v622.119h485.563l139.632 139.63h-764.826v-901.377h901.375v577.17l-139.63-139.632zM292.606 557.002l-98.735-98.732 237.022-237.024 593.106 593.109-98.735 98.732-494.372-494.374z" />
<glyph unicode="&#xe914;" glyph-name="clinic2" d="M833.185 786.817h-68.34v96.516c0 25.433-20.702 46.134-46.124 46.134h-147.361v10.030c0 11.323-9.179 20.502-20.502 20.502h-192.192c-11.323 0-20.502-9.179-20.502-20.502v-10.030h-147.361c-25.433 0-46.124-20.691-46.124-46.134v-758.548c0-25.433 20.691-46.124 46.124-46.124h68.35v-96.527c0-25.443 20.691-46.134 46.124-46.134h527.907c25.443 0 46.134 20.691 46.134 46.134v758.548c0 25.433-20.691 46.134-46.134 46.134zM259.154 740.683v-610.777h-63.219v748.297h142.22v-6.13c0-11.323 9.179-20.502 20.502-20.502h192.192c11.323 0 20.502 9.179 20.502 20.502v6.13h142.22v-91.396h-27.767v10.041c0 11.323-9.179 20.502-20.491 20.502h-192.192c-11.323 0-20.502-9.179-20.502-20.502v-10.030h-147.34c-25.433 0-46.124-20.702-46.124-46.134zM828.065-12.745h-517.667v748.308h142.23v-6.13c0-11.323 9.179-20.502 20.502-20.502h192.181c11.334 0 20.512 9.189 20.512 20.502v6.13h142.209v-748.297h0.032zM391.554 332.254h355.345v-71.757h-355.345v71.757zM391.554 185.324h355.345v-71.767h-355.345v71.767zM537.633 409.12h63.198v80.315h80.315v63.209h-80.315v80.294h-63.198v-80.294h-80.294v-63.209h80.294z" />
<glyph unicode="&#xe915;" glyph-name="clock96" d="M512 960c-282.317 0-512-229.683-512-512s229.683-512 512-512 512 229.683 512 512-229.683 512-512 512zM512 44.945c-222.243 0-403.066 180.802-403.066 403.055s180.823 403.055 403.066 403.055 403.066-180.802 403.066-403.055-180.823-403.055-403.066-403.055zM778.834 463.809h-230.094v276.657c0 23.281-18.876 42.157-42.157 42.157s-42.157-18.876-42.157-42.157v-318.814c0-23.281 18.876-42.157 42.157-42.157h272.252c23.281 0 42.157 18.876 42.157 42.157s-18.876 42.157-42.157 42.157z" />
<glyph unicode="&#xe916;" glyph-name="communication34" d="M926.985 525.448c-18.135 213.182-197.315 381.121-414.985 381.121s-396.85-167.939-414.989-381.121c-56.779-22.728-97.011-78.289-97.011-143.112 0-49.421 23.4-93.449 59.668-121.67v-103.934c0-59.337 48.273-107.61 107.61-107.61h256.99c13.86-34.923 47.945-59.692 87.733-59.692 52.038 0 94.373 42.353 94.373 94.411s-42.336 94.408-94.373 94.408c-39.791 0-73.883-24.773-87.733-59.699h-256.99c-21.056 0-38.185 17.129-38.185 38.185v73.542c8.123-1.331 16.453-2.055 24.948-2.055h119.318c19.17 0 34.709 15.543 34.709 34.713v238.795c0 19.17-15.543 34.709-34.709 34.709h-105.313c8.547 63.457 34.275 121.532 72.345 169.37h543.227c38.060-47.838 63.785-105.917 72.335-169.37h-105.307c-19.17 0-34.709-15.543-34.709-34.709v-238.795c0-19.173 15.543-34.713 34.709-34.713h119.315c84.94 0 154.041 69.139 154.041 154.114-0.003 64.822-40.236 120.384-97.018 143.112zM512 108.828c13.753 0 24.948-11.212 24.948-24.986 0-13.777-11.195-24.986-24.948-24.986s-24.948 11.209-24.948 24.986c0 13.774 11.195 24.986 24.948 24.986zM709.546 775.232h-395.116c56.11 39.015 124.214 61.912 197.57 61.912 73.349 0 141.44-22.9 197.546-61.912zM119.329 459.557v-154.455c-29.396 13.288-49.907 42.905-49.907 77.231 0.003 34.326 20.511 63.943 49.907 77.224zM238.644 297.651h-49.893v169.367h49.893v-169.367zM785.356 467.018h49.893v-169.367h-49.893v169.367zM904.671 305.105v154.455c29.396-13.281 49.907-42.898 49.907-77.221-0.003-34.33-20.511-63.95-49.907-77.234z" />
<glyph unicode="&#xe917;" glyph-name="computer184" d="M244.377 379.436v-175.813c0-147.835 119.822-267.623 267.623-267.623s267.623 119.788 267.623 267.623v171.91c-68.322-34.368-255.154-100.583-535.246 3.903zM546.437 753.445c-0.207 44.903 60.239 47.908 60.239 47.908 182.445 0 158.612 158.646 158.612 158.646h-54.126c0-131.014-116.956-116.921-116.956-116.921-98.58 0-119.373-54.609-122.448-90.532-128.699-19.481-227.383-130.254-227.383-264.273v-74.677c86.145-35.024 319.642-109.011 535.246 0.104v74.574c0 136.091-101.688 248.211-233.186 265.171zM558.285 498.948c0-25.629-20.759-46.388-46.285-46.388-25.56 0-46.319 20.759-46.319 46.388v126.731c0 25.526 20.759 46.285 46.319 46.285s46.285-20.759 46.285-46.285v-126.731z" />
<glyph unicode="&#xe918;" glyph-name="cube10" d="M927.645 282.15v382.709c33.221 10.862 57.259 42.086 57.259 78.941 0 45.884-37.218 83.087-83.087 83.087-28.943 0-54.392-14.811-69.263-37.254l-239.836 79.6c0.244 2.555 0.644 5.068 0.644 7.679 0 45.884-37.218 83.089-83.096 83.089-45.896 0-83.087-37.204-83.087-83.089 0-2.698 0.155-5.352 0.402-7.969l-236.233-79.115c-14.894 22.343-40.312 37.071-69.176 37.071-45.884 0-83.087-37.202-83.087-83.087 0-39.889 28.116-73.166 65.599-81.206v-378.192c-37.483-8.038-65.599-41.311-65.599-81.206 0-45.88 37.202-83.091 83.087-83.091 34.607 0 64.265 21.179 76.751 51.277l239.107-111.243c-6.908-12.107-10.853-26.12-10.853-41.064 0-45.89 37.191-83.087 83.087-83.087 45.879 0 83.096 37.196 83.096 83.087 0 14.871-4.061 28.713-10.922 40.791l242.524 111.812c12.407-30.258 42.133-51.582 76.869-51.582 45.88 0 83.083 37.198 83.083 83.087-0.010 36.883-24.048 68.082-57.268 78.956zM148.017 282.15v382.709c14.848 4.855 27.666 13.93 37.525 25.578l243.512-113.283c-1.208-5.638-1.873-11.475-1.873-17.467 0-39.887 28.116-73.166 65.599-81.204v-100.559l-321.602-107.687c-6.985 5.099-14.768 9.159-23.161 11.912zM199.141 233.91l293.629 98.329v-231.948c-7.584-1.618-14.745-4.324-21.411-7.857l-267.187 124.301c-0.99 6.017-2.83 11.686-5.031 17.175zM536.107 98.035v231.503l288.515-95.768c-2.114-5.317-3.721-10.913-4.697-16.713l-270.64-124.754c-4.212 2.229-8.591 4.231-13.178 5.731zM536.107 375.185v105.563c33.221 10.862 57.255 42.088 57.255 78.941 0 5.903-0.651 11.655-1.817 17.208l246.55 113.673c11.657-13.941 27.795-24.019 46.24-27.975v-378.196c-11.651-2.484-22.399-7.455-31.686-14.268l-316.542 105.055zM818.974 748.489c-0.093-1.571-0.228-3.11-0.228-4.691 0-4.745 0.425-9.376 1.181-13.908l-248.199-114.429c-9.585 10.561-21.777 18.649-35.621 23.178v159.32c16.931 5.547 31.417 16.421 41.624 30.598l241.243-80.068zM442.894 828.373c11.836-16.369 29.446-28.292 49.874-32.676v-154.805c-17.196-3.68-32.343-12.712-43.787-25.223l-244.956 113.975c0.777 4.617 1.249 9.33 1.249 14.167 0 1.654-0.153 3.284-0.255 4.917l237.876 79.644z" />
<glyph unicode="&#xe919;" glyph-name="cube12" d="M64.518 712.684l2.466-530.063c0.037-6.816 3.792-13.062 9.778-16.284l423.359-221.674c2.764-1.475 5.788-2.218 8.811-2.218 0.012 0 0.025 0 0.037 0 1.276-1.45 2.702-2.813 4.4-3.829 2.925-1.747 6.221-2.627 9.53-2.627 3.049 0 6.073 0.756 8.824 2.243l418.005 226.694c5.998 3.259 9.753 9.543 9.753 16.346v551.49c0 0.161-0.062 0.31-0.062 0.483-0.012 0.136 0.037 0.26 0.037 0.409-0.025 0.533-0.235 1.016-0.273 1.537-0.161 1.016-0.273 2.032-0.582 3.012-0.223 0.682-0.508 1.289-0.793 1.946-0.384 0.868-0.768 1.723-1.289 2.516-0.384 0.62-0.843 1.177-1.301 1.747-0.582 0.719-1.19 1.388-1.884 2.020-0.545 0.496-1.128 0.942-1.747 1.376-0.397 0.273-0.731 0.657-1.165 0.905-0.397 0.248-0.855 0.347-1.289 0.558-0.359 0.186-0.644 0.446-1.004 0.607l-430.757 208.662c-5.019 2.119-10.708 1.921-15.59-0.521l-425.8-221.972c-6.246-3.148-10.187-9.543-10.224-16.52 0-0.112 0.050-0.211 0.050-0.31-0.756-2.070-1.301-4.251-1.289-6.531zM897.95 730.716l-375.261-209.814-397.383 198.363 385.51 201.684 387.134-190.233zM541.477-14.217v503.021l380.826 212.826v-509.23l-380.826-206.617z" />
<glyph unicode="&#xe91a;" glyph-name="cube32" d="M494.214-54.147c0 0 0.001 0 0.001-0.002l17.786-9.851 17.786 9.851c0 0 0 0 0 0.002l437.439 242.272v563.52l-455.227 208.354-455.227-208.354v-563.52l437.44-242.272zM633.112 605.325l-121.112-67.077-337.111 186.708 337.111 154.293 337.111-154.293-215.999-119.631zM548.712 40.268v434.379l345.090 191.126v-434.379l-345.090-191.126zM475.288 474.648v-434.38l-345.088 191.128v434.379l345.088-191.127z" />
<glyph unicode="&#xe91b;" glyph-name="delivery13" d="M79.814 335.899h600.165v-83.018h-436.634c-13.019 35.753-47.343 61.388-87.566 61.388-39.62 0-73.522-24.876-86.981-59.82-16.584 4.796-28.72 20.039-28.72 38.167v3.526c0 21.971 17.786 39.757 39.736 39.757zM222.028 230.354c0-38.231-31.106-69.331-69.347-69.331-38.216 0-69.331 31.1-69.331 69.331s31.116 69.353 69.331 69.353c38.241 0 69.347-31.122 69.347-69.353zM200.82 230.354c0 26.542-21.593 48.141-48.139 48.141-26.542 0-48.123-21.598-48.123-48.141 0-26.531 21.593-48.129 48.123-48.129 26.558 0 48.139 21.587 48.139 48.129zM922.876 230.354c0-38.231-31.112-69.331-69.339-69.331-38.231 0-69.341 31.1-69.341 69.331s31.11 69.353 69.341 69.353c38.227 0 69.339-31.122 69.339-69.353zM901.674 230.354c0 26.542-21.598 48.141-48.125 48.141-26.544 0-48.129-21.598-48.129-48.141 0-26.531 21.583-48.129 48.129-48.129 26.527 0 48.125 21.587 48.125 48.129zM1024 429.529v-156.778c0-7.315-5.931-13.25-13.244-13.25h-69.273c-14.674 32.263-47.152 54.769-84.866 54.769-37.685 0-70.184-22.506-84.866-54.769h-46.724c-7.324 0-13.263 5.935-13.263 13.25v314.868c0 7.324 5.939 13.25 13.263 13.25h174.424c7.324 0 18.447-2.441 26.509-13.25l98.039-158.089zM962.192 463.971l-59.623 98.925c-4.61 8.52-10.27 13.244-30.491 13.244h-108.189c-7.317 0-13.254-5.925-13.254-13.244v-98.925c0-7.324 5.937-13.25 13.254-13.25h185.038c7.317 0 13.265 5.925 13.265 13.25zM1013.837 313.394c0 6.807-5.531 12.362-12.364 12.362s-12.362-5.555-12.362-12.362v-23.428c0-6.831 5.529-12.36 12.362-12.36s12.364 5.529 12.364 12.36v23.428zM0 359.622h679.979v375.355h-679.979v-375.355z" />
<glyph unicode="&#xe91c;" glyph-name="delivery55" d="M844.8 297.82c-47.994 0-87.040-39.056-87.040-87.040 0-47.994 39.046-87.040 87.040-87.040 47.984 0 87.040 39.046 87.040 87.040 0 47.984-39.056 87.040-87.040 87.040zM844.8 185.18c-14.12 0-25.6 11.48-25.6 25.6s11.48 25.6 25.6 25.6 25.6-11.48 25.6-25.6c0-14.12-11.48-25.6-25.6-25.6zM836.464 659.63h-150.384c-11.316 0-20.48-9.176-20.48-20.48v-399.36c0-11.304 9.164-20.48 20.48-20.48h21.72c10.138 0 19.118 7.302 20.428 17.356 8.038 61.584 57.16 99.778 116.582 99.778s108.544-38.196 116.582-99.778c1.31-10.056 10.28-17.356 20.428-17.356h21.698c11.304 0 20.48 9.176 20.48 20.48v199.68c0 4.812-1.69 9.462-4.772 13.138l-167.056 199.68c-3.889 4.648-9.644 7.342-15.706 7.342zM706.56 495.79v102.4c0 11.304 9.164 20.48 20.48 20.48h90.214c6.072 0 11.838-2.704 15.728-7.372l85.33-102.4c11.11-13.342 1.628-33.588-15.738-33.588h-175.534c-11.316 0-20.48 9.164-20.48 20.48zM20.48 219.3h52.44c10.138 0 19.118 7.302 20.428 17.356 8.038 61.584 57.16 99.778 116.582 99.778s108.544-38.196 116.582-99.778c1.31-10.056 10.28-17.356 20.428-17.356h257.22c11.306 0 20.48 9.176 20.48 20.48v512c0 11.304-9.176 20.48-20.48 20.48h-583.68c-11.316 0-20.48-9.176-20.48-20.48v-512c0-11.306 9.164-20.48 20.48-20.48zM209.92 297.82c-47.994 0-87.040-39.056-87.040-87.040 0-47.994 39.046-87.040 87.040-87.040 47.984 0 87.040 39.046 87.040 87.040 0 47.984-39.056 87.040-87.040 87.040zM209.92 185.18c-14.12 0-25.6 11.48-25.6 25.6s11.48 25.6 25.6 25.6 25.6-11.48 25.6-25.6c0-14.12-11.48-25.6-25.6-25.6z" />
<glyph unicode="&#xe91d;" glyph-name="dollar179" d="M865.691 304.823c-16.312-19.249-29.775-41.992-38.898-67.805h-630.364c-9.725 25.658-24.011 48.423-41.168 67.805h-61.018c-25.992 0-51.761 7.388-74.125 21.029h-20.117v-65.001c0-28.729 18.693-59.794 33.892-72.901 12.083-10.459 37.697-21.029 60.35-21.029h835.471c51.761 0 94.264 42.214 94.264 93.953v80.178c-24.99-22.498-58.036-36.206-94.264-36.206h-64.022zM929.713 913.825h-835.471c-51.739 0-94.242-41.124-94.242-92.84v-375.21c0-28.729 18.67-59.928 33.892-73.146 12.083-10.459 37.697-21.029 60.35-21.029h835.471c51.761 0 94.264 42.459 94.264 94.175v375.21c0.022 51.716-42.503 92.84-94.264 92.84zM953.836 551.166c-54.943-19.716-104.278-65.157-127.043-129.424h-630.364c-23.455 61.93-73.68 107.46-126.287 128.045v166.52c53.786 19.85 102.676 64.267 125.908 128.556h631.321c22.676-67.783 70.387-110.798 126.531-129.758v-163.939h-0.067zM511.221 799.177c-91.727 0-166.075-74.348-166.075-166.097 0-91.727 74.348-166.097 166.075-166.097 91.75 0 166.097 74.37 166.097 166.097 0.022 91.75-74.348 166.097-166.097 166.097zM524.862 538.014v-30.954h-29.218v28.818c-21.051 0.912-40.79 6.431-52.428 13.196l9.079 35.894c12.885-7.054 30.932-13.485 50.848-13.485 17.491 0 29.419 6.765 29.419 19.004 0 11.661-9.836 19.026-32.534 26.704-32.846 11.060-55.166 26.392-55.166 56.167 0 26.993 19.182 48.178 51.917 54.609v29.218h30.398v-27.104c19.872-0.912 34.114-5.207 44.217-10.125l-8.968-34.67c-7.989 3.36-22.164 10.437-44.239 10.437-19.939 0-26.414-8.59-26.414-17.179 0-10.125 10.682-16.556 36.784-26.392 36.54-12.885 51.071-29.752 51.071-57.391 0.022-27.305-19.694-50.626-54.765-56.745zM865.691 120.122c-16.312-19.227-29.775-41.969-38.898-67.783h-630.364c-9.725 25.636-24.011 48.423-41.168 67.783h-61.018c-25.992 0-51.761 7.388-74.125 21.051h-20.117v-65.024c0-28.729 18.693-59.794 33.892-72.901 12.083-10.459 37.697-21.051 60.35-21.051h835.471c51.761 0 94.264 42.236 94.264 93.975v80.178c-24.99-22.498-58.036-36.206-94.264-36.206h-64.022z" />
<glyph unicode="&#xe91e;" glyph-name="drink76" d="M828.752 240.233c0.779-0.126 22.214-0.578 33.045-0.578 83.074 0 150.655 57.966 150.655 129.214 0 71.253-67.581 129.214-150.655 129.214-9.253 0-18.13-0.065-26.594-0.181v26.112c0 9.364-6.937 16.959-16.301 16.959-10.183 0-555.599 0-694.634 0-9.364 0-16.708-6.932-16.708-16.296v-222.657c0-112.315 56.328-189.195 164.881-227.791-15.719-7.314-26.67-23.214-26.67-41.665 0-4.17 0.608-8.208 1.658-12.051h-168.468c-37.797 0-67.41-21.787-67.41-49.602v-17.959c0-9.364 7.591-16.954 16.954-16.954h886.145c9.359 0 16.954 7.591 16.954 16.954v17.959c0 27.815-29.614 49.602-67.415 49.602h-168.86c1.050 3.848 1.658 7.877 1.658 12.051 0 18.451-10.956 34.356-26.675 41.665 87.334 31.045 140.849 86.881 158.441 166.002zM861.796 464.171c64.371 0 116.746-42.755 116.746-95.306s-52.375-95.306-116.746-95.306c-9.811 0-19.16 0.1-27.86 0.286 0.829 9.133 1.266 18.517 1.266 28.167v98.963c6.963 0.080 23.485 0.121 28.9 0.121 22.766 0 41.288-14.332 41.288-31.939 0-11.755-8.821-22.897-22.475-28.388-8.686-3.496-12.885-13.373-9.394-22.058 2.662-6.611 9.017-10.625 15.739-10.625 2.11 0 4.25 0.397 6.32 1.231 26.559 10.69 43.709 34.185 43.709 59.845 0 36.31-33.733 65.848-75.192 65.848-4.858 0-21.204-0.040-28.9-0.121v29.096c8.445 0.121 17.331 0.186 26.599 0.186zM622.502 20.51c-9.364 0-16.954-7.591-16.954-16.954s7.591-16.954 16.954-16.954h241.696c20.139 0 33.497-9.444 33.497-15.693v-1.005h-852.237v1.005c0 6.244 13.363 15.693 33.502 15.693h421.472c9.364 0 16.954 7.591 16.954 16.954s-7.585 16.954-16.954 16.954h-208.691c-6.651 0-12.056 5.41-12.056 12.051 0 6.646 5.41 12.056 12.056 12.056h359.286c6.651 0 12.056-5.41 12.056-12.056 0-6.641-5.41-12.051-12.056-12.051h-28.523zM471.38 79.32c-218.914 0-329.913 74.925-329.913 222.702v206.456c0 0 638.446 0.080 659.937 0l-0.111-206.456c0-147.776-110.999-222.702-329.913-222.702zM350.068 625.973c-5.084-7.862-2.833-18.361 5.034-23.445 2.843-1.839 6.033-2.718 9.188-2.718 5.561 0 11.012 2.733 14.252 7.751 2.718 4.205 65.903 103.851 6.641 179.414-41.238 52.571 17.175 124.151 17.768 124.869 5.983 7.184 5.023 17.859-2.15 23.857-7.184 6.008-17.874 5.054-23.882-2.13-0.774-0.924-19.089-23.023-30.794-53.852-16.382-43.162-12.107-82.471 12.373-113.677 44.292-56.454-7.912-139.261-8.429-140.070zM588.402 625.973c-5.089-7.862-2.828-18.361 5.034-23.445 2.838-1.839 6.038-2.718 9.188-2.718 5.561 0 11.006 2.733 14.252 7.751 2.718 4.205 65.903 103.851 6.636 179.414-41.153 52.465 16.934 123.864 17.768 124.864 5.983 7.184 5.023 17.864-2.15 23.862-7.184 6.008-17.874 5.054-23.882-2.13-0.774-0.924-19.089-23.023-30.794-53.852-16.382-43.162-12.102-82.471 12.378-113.677 44.292-56.454-7.917-139.261-8.429-140.070zM465.719 607.17c-5.933-7.244-4.868-17.929 2.371-23.862 3.155-2.582 6.953-3.838 10.735-3.838 4.908 0 9.776 2.12 13.126 6.209 0.884 1.080 21.822 26.911 33.406 64.225 15.834 50.999 6.857 98.837-25.946 138.347-47.884 57.665 17.497 143.195 18.391 144.35 5.767 7.369 4.476 18.014-2.889 23.786-7.369 5.772-18.024 4.486-23.801-2.883-3.431-4.375-83.249-108.076-17.783-186.919 60.875-73.308-4.807-155.965-7.611-159.416z" />
<glyph unicode="&#xe91f;" glyph-name="earth186" d="M300.868 664.879h190.171v-195.897h-211.738c1.233 69.862 8.819 135.962 21.567 195.897zM300.868 231.121h190.171v195.918h-211.738c1.233-69.904 8.819-135.962 21.567-195.918zM491.018 706.863v251.883c-76.967-15.109-142.984-112.494-180.182-251.883h180.182zM766.809 231.121h209.669c28.045 59.956 44.722 126.015 47.459 195.918h-237.234c-1.191-69.987-7.879-135.879-19.895-195.918zM766.809 664.879c11.954-59.998 18.704-125.952 19.874-195.897h237.317c-2.863 69.862-19.477 135.962-47.459 195.897h-209.732zM757.3 706.863h197.172c-68.462 116.82-181.687 203.818-316.312 237.902 51.722-51.263 93.247-134.102 119.139-237.902zM491.018-62.725v251.862h-180.182c37.198-139.348 103.215-236.711 180.182-251.862zM713.143 706.863c-37.136 139.348-103.173 236.732-180.161 251.883v-251.883h180.161zM744.741 427.039h-211.759v-195.918h190.171c12.727 59.956 20.334 126.015 21.588 195.918zM0 427.039c2.821-69.904 19.477-135.962 47.501-195.918h209.627c-11.954 60.040-18.704 125.931-19.832 195.918h-237.296zM266.7 189.137h-197.151c68.483-116.82 181.687-203.839 316.332-237.923-51.722 51.284-93.268 134.123-119.181 237.923zM757.3 189.137c-25.893-103.8-67.396-186.661-119.139-237.923 134.604 34.085 247.745 121.145 316.312 237.923h-197.172zM266.7 706.863c25.913 103.8 67.396 186.64 119.16 237.902-134.625-34.064-247.787-121.104-316.312-237.902h197.151zM723.153 664.879h-190.171v-195.897h211.759c-1.254 69.862-8.861 135.962-21.588 195.897zM47.501 664.879c-28.024-59.935-44.701-126.036-47.501-195.897h237.296c1.149 69.945 7.879 135.899 19.832 195.897h-209.627zM532.982 189.137v-251.883c76.988 15.13 143.026 112.494 180.161 251.883h-180.161z" />
<glyph unicode="&#xe920;" glyph-name="earth190" d="M212.089 412.429c0 54.697 15.848 105.572 42.837 148.738-11.326 19.363-25.427 38.623-42.488 53.176-52.642 44.831-84.77-147.402-84.77-147.402l-64.482-5.159-19.384 242.367 370.241 29.6 4.029-50.443c10.853 3.001 21.994 5.324 33.341 7.030l-6.228 77.987c-0.411 4.933-4.728 8.674-9.723 8.263l-427.117-34.122c-5.015-0.411-8.695-4.769-8.304-9.723l29.538-369.563c0.411-4.974 4.748-8.736 9.743-8.325l176.446 14.142c-2.199 14.163-3.679 28.613-3.679 43.433zM403.232 193.598c-2.611 1.007-5.283 1.912-7.852 3.001-4.152 4.748-18.047 22.117-31.635 54.081 11.984-3.124 25.242-5.858 39.487-8.14v21.521c-18.212 3.124-34.615 7.030-48.819 11.408-6.968 21.131-13.011 46.845-16.65 77.267 18.972-4.358 40.864-8.099 65.468-10.853v21.316c-25.735 3.001-48.428 7.153-67.565 11.84-0.884 12.189-1.521 24.81-1.521 38.377 0 9.229 0.247 18.171 0.658 26.783 22.241 5.694 49.045 10.75 80.618 14.060-0.617-12.683-1.069-25.817-1.069-39.754 0-17.739 0.617-34.266 1.603-49.908h21.213c-1.048 15.622-1.727 32.066-1.727 49.908 0 14.676 0.514 28.387 1.233 41.645 17.040 1.233 35.191 1.994 54.759 1.994 15.067 0 29.045-0.514 42.508-1.295 0.863-14.491 1.459-29.517 1.459-45.715 0-4.399-0.185-8.469-0.247-12.703h21.11c0.062 4.234 0.206 8.325 0.206 12.703 0 15.622-0.514 30.175-1.295 44.255 34.183-3.001 62.796-8.099 86.106-14.019 0.391-8.222 0.617-16.691 0.617-25.571 0-5.982-0.164-11.696-0.391-17.39h2.261v-33.834h33.834c19.712 6.865 34.286 13.813 43.947 19.199-0.822-6.454-1.953-12.868-3.289-19.199h21.501c3.083 15.889 4.83 32.272 4.83 49.106 0 102.16-59.96 190.568-146.518 231.945-0.493 0.534-0.884 0.987-1.048 1.131l-0.452-0.432c-33.094 15.56-70.011 24.317-108.943 24.317-5.714 0-11.367-0.267-16.979-0.617v0c-133.773-8.798-239.921-120.351-239.921-256.324 0-112.067 72.231-207.361 172.5-242.387v22.344zM416.675 475.554c-30.915-3.001-57.699-7.647-80.248-13.053 3.022 32.971 8.839 60.7 15.725 83.516 21.11 6.537 46.763 12.189 77.103 15.478-5.406-24.255-10.010-52.642-12.58-85.941zM491.434 479.193c-19.014 0-36.65-0.74-53.361-1.871 2.837 33.628 7.708 62.241 13.361 86.085 11.244 0.719 22.857 1.233 35.293 1.233 11.12 0 21.624-0.391 31.799-0.966 5.797-23.536 10.812-52.025 13.834-85.51-12.97 0.637-26.557 1.028-40.925 1.028zM553.717 476.746c-2.775 33.032-7.482 61.275-12.991 85.222 33.526-3.371 61.419-9.661 84.235-16.835 6.516-22.344 11.984-49.333 14.8-81.522-23.844 5.653-52.375 10.422-86.044 13.135zM661.92 381.802c0.617 10.874 1.069 22.117 1.069 33.998 0 6.742-0.288 13.135-0.473 19.548 32.703-10.195 52.066-20.987 60.124-26.126-4.707-3.309-23.967-15.663-60.72-27.421zM722.619 433.786c-12.806 6.907-32.868 15.951-61.275 24.194-2.179 30.031-6.516 56.116-12.066 78.418 36.177-14.635 53.875-29.682 55.89-31.47 9.353-22.2 15.355-46.146 17.451-71.142zM684.325 543.674c-11.223 5.94-25.262 12.292-42.323 18.212-5.714 17.595-11.963 32.189-17.986 44.070 23.741-16.917 44.235-38.027 60.309-62.282zM585.146 628.362c5.879-7.256 19.322-26.105 31.717-58.726-22.94 6.228-50.073 11.285-81.604 13.936-8.345 29.949-17.554 51.285-24.44 64.811 26.27-2.59 51.265-9.517 74.328-20.021zM482.76 649.39c1.11 0 2.22 0.062 3.351 0.082 5.139-8.654 16.198-29.682 26.578-64.42-8.407 0.37-16.979 0.617-25.941 0.617-10.257 0-20.124-0.267-29.62-0.719 9.455 32.642 19.712 53.855 25.632 64.441zM392.708 629.492c20.411 9.003 42.303 15.19 65.222 18.089-6.927-14.163-15.56-35.396-23.371-64.297-28.305-2.59-52.95-7.112-74.019-12.683 13.546 34.779 27.873 53.711 32.169 58.891zM353.858 607.724c-6.187-11.922-12.703-26.825-18.726-44.934-17.862-6.167-32.457-12.765-44.009-18.993 16.67 25.098 38.007 46.804 62.735 63.927zM270.301 505.154l0.391-0.391c0.329 0.329 18.068 16.876 56.876 32.498-5.838-22.734-10.38-49.6-12.724-80.392-28.88-8.345-49.333-17.431-62.159-24.111 2.035 25.468 8.078 49.805 17.616 72.396zM251.987 408.092c7.585 4.666 27.77 15.581 61.604 26.105-0.247-6.824-0.493-13.608-0.493-20.802 0-11.326 0.391-22.056 0.987-32.477-32.004 9.599-52.334 19.712-62.056 25.262-0.021 0.637-0.041 1.274-0.041 1.912zM254.124 381.124c13.628-6.722 33.916-15.149 61.686-22.899 2.898-28.346 7.873-52.827 13.813-73.999-32.642 12.991-50.751 26.496-56.177 30.977-9.476 20.576-16.095 42.693-19.322 65.921zM296.571 275.716c11.203-5.714 24.954-11.655 41.378-17.246 5.817-15.992 11.984-29.373 17.862-40.268-22.96 15.56-43.002 35.088-59.24 57.514zM451.475 326.837l-3.001-358.442h526.974l3.001 358.442h-526.974zM639.329 1.715c-78.727 0-142.53 63.803-142.53 142.571s63.803 142.571 142.53 142.571c78.747 0 142.551-63.803 142.551-142.571s-63.803-142.571-142.551-142.571zM918.223 252.366h-45.777c-13.649 0-24.707 11.079-24.707 24.646 0 13.649 11.059 24.687 24.707 24.687h45.777c13.546 0 24.625-11.038 24.625-24.687 0-13.566-11.079-24.646-24.625-24.646zM501.342 363.898h108.059v-39.219h-108.059v39.219zM735.898 144.327c0-54.286-43.927-98.069-98.069-98.069-54.184 0-98.048 43.824-98.048 98.069 0 54.122 43.865 98.048 98.048 98.048 54.122-0.021 98.069-43.927 98.069-98.048zM107.915 632.144c1.686 0 3.309 0.144 4.892 0.349h52.087v0.329c12.354 1.501 21.747 9.003 21.747 18.089 0 10.175-11.758 18.417-26.249 18.417 0 0-0.021 0-0.041 0-0.267 9.99-11.86 18.068-26.187 18.068-14.491 0-26.228-8.243-26.228-18.417-14.491 0-26.249-8.243-26.249-18.417s11.758-18.417 26.228-18.417zM134.164 650.562c0.021 0 0.021 0 0.041 0 0-0.041 0-0.062 0-0.103h-0.082c0.021 0.041 0.041 0.062 0.041 0.103zM265.964 632.144c1.686 0 3.309 0.144 4.892 0.349h52.087v0.329c12.354 1.501 21.747 9.003 21.747 18.089 0 10.175-11.758 18.417-26.249 18.417h-0.021c-0.288 9.99-11.881 18.068-26.208 18.068-14.491 0-26.228-8.243-26.228-18.417-14.491 0-26.249-8.243-26.249-18.417s11.758-18.417 26.228-18.417zM292.234 650.562c0.021 0 0.021 0 0.041 0 0-0.041 0-0.062 0-0.103h-0.082c0.021 0.041 0.041 0.062 0.041 0.103zM256.447 114.81c-12.333 9.846-22.015 20.124-28.983 30.278l51.964-0.432c0 0-93.444 157.248-94.205 191.821-0.74 34.512-110.957-190.033-110.957-190.033l63.146-0.534c8.9-33.854 31.737-66.64 67.832-95.397 50.977-40.597 129.21-72.354 220.66-82.077v82.755c-69.682 8.51-129.745 32.004-169.457 63.618zM871.090 372.922c-10.216 50.401-48.038 80.577-97.35 80.535l1.192-82.221c7.297 0.288 12.58 0.206 15.581-14.656 0.144-0.637 0.144-1.439 0.267-2.138h82.755c-0.473 6.331-1.233 12.539-2.446 18.479zM1004.123 664.765c-31.408 32.107-86.723 59.364-134.925 47.421-14.142-1.501-30.977-0.802-42.159 1.809-27.626 6.434 33.423 26.002 38.767 27.359 12.025 3.083 24.070 2.199 35.376-0.534 8.715-2.035 9.435 6.331 0.37 6.393-11.059 0.021-20.514-0.329-31.922-3.227-9.188-2.241-19.404-5.755-29.127-9.127-11.593-3.905-8.53-1.131-17.719-5.673 4.234 9.27 1.706 6.824 5.447 18.849 2.981 9.538 6.023 19.486 7.975 28.448 2.549 11.49 2.59 20.925 2.241 32.004-0.349 9.085-8.695 8.058-6.352-0.534 3.042-11.182 4.255-23.186 1.542-35.314-1.192-5.385-18.931-67.010-26.187-39.589-2.919 11.1-4.111 27.935-3.104 42.138 10.565 48.469-18.356 102.961-51.388 133.342-12.785 11.84-28.51 19.055-28.51 19.055s-46.373-117.535-40.083-120.474c-4.029-15.601 27.256-62.097 27.256-62.097-13.073-1.336-31.429 1.418-49.106-6.084-10.606-4.584-20.987-12.888-29.805-28.202-3.741-6.537-6.639-12.107-8.14-17.698-1.11-4.193-4.234-25.427 6.413-33.299 10.668-7.914 35.088-29.435 56.301-23.597 21.151 5.838 48.264 15.478 48.264 15.478s-8.798-12.292-18.561-19.157c-7.092-4.995-25.118-24.214-17.821-30.627 7.256-6.516 25.324 11.511 30.113 18.746 6.537 10.031 18.582 19.157 18.582 19.157s-8.839-27.441-14.060-48.716c-5.18-21.336 12.498-46.146 25.262-55.581 12.724-9.414 29.415-6.578 33.505-5.344 5.57 1.624 11.079 4.707 17.451 8.633 15.005 9.25 23.042 19.939 27.277 30.607 7.112 17.924 3.679 36.198 4.563 49.271 0 0 47.524-29.867 62.94-25.386 3.145-6.167 119.282 43.762 119.282 43.762s-7.852 15.375-19.959 27.791z" />
<glyph unicode="&#xe921;" glyph-name="edit45" d="M636.75 787.445l208.305-208.303-527.277-527.277-208.187 208.303 527.159 527.277zM1003.117 837.683l-92.896 92.896c-35.901 35.901-94.197 35.901-130.22 0l-88.985-88.985 208.305-208.305 103.796 103.796c27.845 27.847 27.845 72.753 0 100.598zM0.581-32.618c-3.791-17.061 11.613-32.348 28.676-28.199l232.121 56.28-208.187 208.303-52.61-236.384z" />
<glyph unicode="&#xe922;" glyph-name="emblem" d="M686.295 232.864c-0.654 0-1.307 0-1.961 0l-43.139 1.634-32.026-28.976c-10.022-9.043-22.986-14.053-36.493-14.053-7.081 0-14.053 1.306-20.589 4.029l-39.979 16.34-39.978-16.34c-6.536-2.723-13.508-4.029-20.589-4.029-13.508 0-26.471 5.011-36.493 14.053l-32.027 28.976-43.138-1.634c-0.654 0-1.307 0-1.961 0-20.263 0-38.672 11.11-48.149 29.084l-20.153 38.238-1.634 0.545v-337.37c0-20.262 21.352-33.442 39.434-24.291l192.596 96.732c7.734 3.813 16.776 3.813 24.51 0l192.269-96.843c18.083-9.148 39.434 4.032 39.434 24.293v337.367l-1.634-0.545-20.153-38.236c-9.371-17.865-27.889-28.975-48.15-28.975zM883.684 574.809c5.556 8.824 5.556 20.044 0 28.976l-22.986 36.602c-3.813 5.991-5.011 13.29-3.595 20.153l9.15 42.266c2.179 10.24-1.634 20.806-9.914 27.234l-34.096 26.471c-5.556 4.357-9.259 10.676-10.239 17.756l-5.991 42.811c-1.417 10.349-8.715 18.955-18.629 22.223l-41.068 13.29c-6.753 2.179-12.417 6.972-15.685 13.181l-20.153 38.236c-4.684 8.933-14.053 14.488-24.076 14.488-0.327 0-0.654 0-0.979 0l-43.139-1.634c-0.327 0-0.654 0-0.979 0-6.754 0-13.29 2.505-18.301 7.081l-32.027 28.976c-5.12 4.575-11.656 7.081-18.301 7.081-3.486 0-6.972-0.654-10.24-2.070l-39.979-16.34c-3.268-1.307-6.753-2.070-10.239-2.070s-6.972 0.654-10.24 2.070l-39.979 16.34c-3.377 1.307-6.863 2.070-10.239 2.070-6.646 0-13.182-2.397-18.301-7.081l-32.027-28.976c-5.011-4.575-11.547-7.081-18.301-7.081-0.327 0-0.655 0-0.98 0l-43.138 1.634c-0.327 0-0.655 0-0.98 0-10.022 0-19.39-5.556-24.074-14.488l-20.153-38.236c-3.268-6.318-8.933-11.002-15.685-13.181l-41.068-13.29c-9.914-3.159-17.212-11.874-18.629-22.223l-5.991-42.811c-0.979-7.081-4.684-13.399-10.239-17.756l-34.532-26.471c-8.28-6.427-12.093-16.994-9.914-27.234l9.15-42.266c1.525-6.972 0.218-14.161-3.595-20.153l-22.986-36.602c-5.556-8.824-5.556-20.044 0-28.976l22.986-36.602c3.813-5.991 5.011-13.29 3.595-20.153l-9.15-42.268c-2.179-10.239 1.634-20.806 9.914-27.234l34.096-26.471c5.556-4.357 9.259-10.674 10.24-17.755l5.991-42.812c1.416-10.349 8.715-18.955 18.628-22.223l31.155-10.021 10.022-3.268c6.754-2.179 12.418-6.972 15.687-13.181l20.153-38.236c4.684-8.934 14.051-14.489 24.074-14.489 0.327 0 0.654 0 0.98 0l43.138 1.634c0.327 0 0.654 0 0.98 0 6.753 0 13.289-2.507 18.301-7.081l32.026-28.976c5.12-4.576 11.656-7.081 18.302-7.081 3.485 0 6.971 0.654 10.239 2.070l39.979 16.34c3.268 1.306 6.754 2.068 10.24 2.068 3.485 0 6.971-0.654 10.239-2.068l39.979-16.34c3.377-1.308 6.863-2.070 10.24-2.070 6.645 0 13.181 2.395 18.301 7.081l32.026 28.976c5.012 4.574 11.548 7.081 18.302 7.081 0.327 0 0.654 0 0.979 0l43.139-1.634c0.327 0 0.654 0 0.979 0 10.022 0 19.39 5.556 24.076 14.489l20.153 38.236c3.268 6.317 8.932 11.002 15.685 13.181l10.022 3.268 31.155 10.021c9.914 3.159 17.213 11.874 18.629 22.223l5.991 42.812c0.979 7.081 4.684 13.398 10.239 17.755l34.097 26.471c8.279 6.427 12.092 16.995 9.913 27.234l-9.15 42.268c-1.524 6.971-0.217 14.161 3.596 20.153l23.202 36.602zM775.512 477.966c-5.557-12.962-11.874-25.49-19.174-37.473-11.765-19.28-25.817-37.254-42.049-53.378-26.254-26.253-56.864-46.842-90.851-61.22-35.294-14.925-72.768-22.44-111.331-22.44s-76.036 7.514-111.33 22.44c-34.097 14.378-64.599 34.968-90.851 61.22-16.23 16.231-30.284 34.097-42.049 53.378-7.299 11.983-13.727 24.401-19.174 37.473-14.923 35.295-22.44 72.769-22.44 111.331 0 38.563 7.516 76.036 22.44 111.331 14.379 34.096 34.969 64.598 61.221 90.851s56.864 46.842 90.851 61.221c35.294 14.924 72.768 22.44 111.33 22.44s76.037-7.516 111.331-22.44c34.096-14.379 64.598-34.968 90.851-61.221s46.842-56.864 61.221-90.851c14.923-35.295 22.44-72.768 22.44-111.331 0.002-38.563-7.515-76.036-22.438-111.331zM512.001 842.569c-139.872 0-253.272-113.401-253.272-253.272 0-23.203 3.159-45.752 9.042-67.103 29.412-107.3 127.671-186.17 244.23-186.17s214.818 78.868 244.23 186.17c5.881 21.351 9.042 43.9 9.042 67.103 0 139.872-113.401 253.272-253.272 253.272zM624.747 471.975c4.902-22.985-19.608-40.958-40.088-29.303l-72.659 41.177-72.768-41.177c-20.371-11.547-44.99 6.427-40.088 29.303l17.429 82.136-56.864 51.308-6.318 5.774c-17.321 15.687-8.17 44.445 14.923 47.277l82.79 10.131 36.058 77.234c9.804 20.915 39.543 20.915 49.347 0l36.057-77.234 82.79-10.131c23.204-2.832 32.246-31.591 14.924-47.277l-6.318-5.774-56.864-51.308 17.647-82.136z" />
<glyph unicode="&#xe923;" glyph-name="fastfood47" d="M383.75 537.174c3.846 0 7.693 1.467 10.627 4.403l16.031 16.031c5.869 5.869 5.869 15.384 0 21.254s-15.386 5.869-21.254 0l-16.031-16.031c-5.869-5.869-5.869-15.384 0-21.254 2.934-2.936 6.781-4.403 10.627-4.403zM533.436 557.608c2.934-2.934 6.781-4.403 10.627-4.403s7.693 1.467 10.627 4.403c5.869 5.869 5.869 15.384 0 21.254l-16.031 16.031c-5.869 5.869-15.386 5.869-21.254 0s-5.869-15.384 0-21.254l16.031-16.031zM805.968 573.639c2.934-2.934 6.781-4.403 10.627-4.403s7.693 1.467 10.627 4.403c5.869 5.869 5.869 15.384 0 21.254l-16.031 16.031c-5.869 5.869-15.386 5.869-21.254 0s-5.869-15.384 0-21.254l16.031-16.031zM437.248 685.859c2.934-2.934 6.781-4.403 10.627-4.403s7.693 1.467 10.627 4.403c5.869 5.869 5.869 15.384 0 21.254l-16.031 16.031c-5.869 5.869-15.386 5.869-21.254 0-5.869-5.869-5.869-15.384 0-21.254l16.031-16.031zM319.624 617.331c3.846 0 7.693 1.467 10.627 4.403l16.031 16.031c5.869 5.869 5.869 15.384 0 21.254s-15.386 5.869-21.254 0l-16.031-16.031c-5.869-5.869-5.869-15.384 0-21.254 2.934-2.936 6.781-4.403 10.627-4.403zM212.81 557.608c2.934-2.934 6.781-4.403 10.627-4.403s7.693 1.467 10.627 4.403c5.869 5.869 5.869 15.384 0 21.254l-16.031 16.031c-5.869 5.869-15.386 5.869-21.254 0-5.869-5.869-5.869-15.384 0-21.254l16.031-16.031zM672.313 537.174c3.846 0 7.693 1.467 10.627 4.403l16.031 16.031c5.869 5.869 5.869 15.384 0 21.254s-15.386 5.869-21.254 0l-16.031-16.031c-5.869-5.869-5.869-15.384 0-21.254 2.934-2.936 6.781-4.403 10.627-4.403zM576.125 665.425c3.846 0 7.693 1.467 10.627 4.403l16.031 16.031c5.869 5.869 5.869 15.384 0 21.254s-15.386 5.869-21.254 0l-16.031-16.031c-5.869-5.869-5.869-15.384 0-21.254 2.934-2.936 6.781-4.403 10.627-4.403zM672.313 633.362c3.846 0 7.693 1.467 10.627 4.403l16.031 16.031c5.869 5.869 5.869 15.384 0 21.254s-15.386 5.869-21.254 0l-16.031-16.031c-5.869-5.869-5.869-15.384 0-21.254 2.934-2.936 6.781-4.403 10.627-4.403zM960.877 342.795h-17.033v43.218c0.002 0 0.006 0.002 0.008 0.002 8.929 3.691 16.643 6.877 33.057 6.877 8.3 0 15.029 6.729 15.029 15.029s-6.729 15.029-15.029 15.029c-14.757 0-24.889-2.118-33.065-4.789v38.856h1.002c26.846 0 47.092 20.25 47.092 47.106v48.080c0 31.828-42.992 95.591-122.668 151.067-68.424 47.641-185.947 104.432-357.27 104.432s-288.846-56.791-357.27-104.432c-79.676-55.476-122.668-119.239-122.668-151.067v-48.080c0-26.856 20.246-47.106 47.092-47.106h1.002v-38.88c-8.17 2.683-18.296 4.813-33.065 4.813-8.3 0-15.029-6.729-15.029-15.029s6.729-15.029 15.029-15.029c16.356 0 24.041-3.184 32.94-6.871 0.042-0.018 0.084-0.036 0.124-0.052v-43.174h-17.033c-34.806 0-63.123-28.317-63.123-63.123v-32.063c0-34.806 28.317-63.123 63.123-63.123h1.002v-17.089c0-43.615 35.483-79.098 79.098-79.098h737.555c43.613 0 79.096 35.483 79.096 79.098v17.089h1.002c34.806 0 63.123 28.317 63.123 63.123v32.063c0 34.806-28.317 63.123-63.123 63.123zM62.121 504.124v48.080c0 16.875 33.151 73.039 109.786 126.399 64.889 45.182 176.567 99.041 340.092 99.041s275.204-53.859 340.092-99.041c76.636-53.36 109.786-109.524 109.786-126.399v-48.080c0-10.038-7.004-17.047-17.033-17.047h-865.691c-10.030 0-17.033 7.010-17.033 17.047zM913.785 457.018v-49.032c-4.044-0.667-8.715-1.066-14.47-1.066-16.416 0-24.127 3.186-33.057 6.877-10.384 4.292-22.155 9.154-44.537 9.154-22.37 0-34.135-4.866-44.513-9.156-8.921-3.689-16.626-6.875-33.027-6.875-16.382 0-24.079 3.186-32.988 6.873-10.372 4.294-22.127 9.158-44.483 9.158-22.354 0-34.109-4.866-44.479-9.158-8.909-3.687-16.606-6.873-32.982-6.873-16.384 0-24.083 3.186-32.994 6.873-10.374 4.292-22.131 9.158-44.489 9.158s-34.115-4.866-44.487-9.158c-8.913-3.687-16.61-6.873-32.994-6.873s-24.083 3.186-32.994 6.873c-10.374 4.292-22.129 9.158-44.489 9.158-22.35 0-34.105-4.866-44.473-9.158-8.907-3.687-16.602-6.873-32.976-6.873-16.364 0-24.051 3.184-32.954 6.871-10.366 4.292-22.115 9.16-44.457 9.16-22.352 0-34.109-4.866-44.479-9.158-8.909-3.687-16.604-6.873-32.98-6.873-5.661 0-10.268 0.389-14.262 1.040v49.058h803.565zM110.215 377.621c4.242-0.479 8.943-0.759 14.262-0.759 22.352 0 34.107 4.866 44.477 9.158 8.909 3.687 16.604 6.873 32.98 6.873 16.364 0 24.051-3.184 32.954-6.871 10.366-4.292 22.115-9.16 44.457-9.16 22.35 0 34.103 4.866 44.473 9.158 8.907 3.687 16.602 6.873 32.976 6.873 16.384 0 24.083-3.186 32.994-6.873 10.372-4.292 22.131-9.158 44.489-9.158s34.115 4.866 44.489 9.158c8.913 3.687 16.61 6.873 32.994 6.873s24.083-3.186 32.996-6.873c10.374-4.292 22.131-9.158 44.489-9.158 22.354 0 34.109 4.866 44.479 9.158 8.911 3.687 16.606 6.873 32.984 6.873 16.38 0 24.077-3.184 32.988-6.873 10.372-4.294 22.129-9.158 44.485-9.158 22.37 0 34.135 4.866 44.513 9.156 8.921 3.689 16.626 6.875 33.027 6.875 16.416 0 24.127-3.186 33.057-6.877 10.384-4.292 22.155-9.154 44.537-9.154 5.403 0 10.176 0.289 14.47 0.78v-34.846h-433.855c-0.002 0-0.004 0-0.006 0-25.963-0.008-47.080-21.129-47.080-47.092v-16.031c0-5.006-2.19-9.737-6.010-12.985-3.87-3.29-8.841-4.641-13.995-3.803-7.885 1.283-14.061 9.412-14.061 18.504v12.601c0 23.819-16.893 44.529-39.295 48.174-13.795 2.244-27.756-1.609-38.295-10.575-10.547-8.97-16.594-22.049-16.594-35.884v-94.473c0-9.094-6.176-17.222-14.061-18.504-5.154-0.834-10.126 0.511-13.995 3.803-3.819 3.248-6.010 7.982-6.010 12.985v80.157c0 34.806-28.319 63.123-63.127 63.123h-97.186v34.826zM30.059 247.609v32.063c0 18.232 14.833 33.065 33.065 33.065h144.282c18.232 0 33.065-14.833 33.065-33.065v-65.127h-177.346c-18.232 0-33.065 14.833-33.065 33.065zM929.816 167.396c0-27.041-21.999-49.040-49.040-49.040h-737.553c-27.041 0-49.040 21.999-49.040 49.040v17.089h148.743c2.695-8.014 7.535-15.238 14.138-20.855 8.573-7.29 19.402-11.2 30.57-11.2 2.565 0 5.15 0.208 7.725 0.627 16.911 2.751 30.67 15.232 36.405 31.429h598.052v-17.091zM993.941 247.609c0-18.232-14.833-33.065-33.065-33.065h-626.223v81.159c0 5.006 2.19 9.737 6.010 12.985 3.87 3.29 8.841 4.641 13.995 3.803 7.885-1.283 14.061-9.412 14.061-18.504v-12.601c0-23.819 16.893-44.529 39.295-48.174 13.793-2.242 27.754 1.609 38.295 10.575 10.547 8.97 16.594 22.047 16.594 35.884v16.031c0 9.392 7.641 17.033 17.033 17.033h480.939c18.232 0 33.065-14.833 33.065-33.065v-32.063z" />
<glyph unicode="&#xe924;" glyph-name="favorite21" d="M512-23.040l-71.68 71.68c-266.24 235.52-440.32 394.24-440.32 588.8 0 158.72 122.88 281.6 281.6 281.6 87.040 0 174.080-40.96 230.4-107.52 56.32 66.56 143.36 107.52 230.4 107.52 158.72 0 281.6-122.88 281.6-281.6 0-194.56-174.080-353.28-440.32-588.8l-71.68-71.68z" />
<glyph unicode="&#xe925;" glyph-name="file148" d="M836.416 960h-770.592v-919.682h770.592v919.682zM790.101 86.63c-42.008 0-635.912 0-677.965 0 0 42.754 0 784.389 0 827.013 42.096 0 635.957 0 677.965 0 0-42.666 0-784.302 0-827.013zM192.989 810.645h526.765v-48.598h-526.765v48.598zM192.989 657.511h526.765v-48.555h-526.765v48.555zM868.141 855.772v-46.357h43.634v-826.968h-678.008v32.12h-46.402v-78.567h770.81v919.772zM212.675 297.239c9.14 0 17.488 2.593 25.178 6.372l66.086-54.047c-0.352-2.548-1.493-4.746-1.493-7.382 0-31.99 25.926-57.871 57.871-57.871s57.871 25.926 57.871 57.871c0 9.183-2.636 17.533-6.415 25.266 31.77 47.633 72.328 108.534 96.671 145.049 3.736-0.79 7.25-2.286 11.206-2.286 13.885 0 26.146 5.537 36.119 13.709 21.752-12.699 50.006-29.177 74.349-43.369-0.045-0.835-0.483-1.45-0.483-2.286 0-31.99 25.926-57.871 57.871-57.871s57.826 25.926 57.826 57.871c0 31.945-25.881 57.871-57.826 57.871-14.149 0-26.628-5.669-36.734-14.105l-73.953 43.151c0.045 0.968 0.57 1.801 0.57 2.768 0 31.945-25.881 57.783-57.783 57.783s-57.738-25.881-57.738-57.783c0-10.721 3.691-20.169 8.745-28.782-30.362-45.61-69.997-105.063-94.825-142.368-5.009 1.493-9.975 3.208-15.467 3.208-11.951 0-22.454-4.526-31.682-10.721-18.323 15.027-40.998 33.571-61.254 50.136 1.45 5.097 3.164 10.106 3.164 15.643 0 32.033-26.056 57.871-57.871 57.826-32.033 0-57.914-25.838-57.914-57.826-0.045-31.902 25.836-57.828 57.914-57.828z" />
<glyph unicode="&#xe926;" glyph-name="flag10" d="M220.815 782.659c7.246-6.865 10.87-15.637 10.87-26.315v-783.731c0-9.916-3.624-18.497-10.87-25.743-7.246-7.24-15.828-10.87-25.743-10.87s-18.305 3.63-25.17 10.87c-6.865 7.246-10.297 15.834-10.297 25.743v783.733c0 10.678 3.432 19.45 10.297 26.315s15.256 10.295 25.17 10.295c9.916 0 18.497-3.432 25.743-10.297zM195.074 960c-16.781 0-31.275-6.101-43.477-18.305s-18.305-26.887-18.305-44.050 6.101-31.847 18.305-44.050 26.696-18.305 43.477-18.305 31.275 6.101 43.477 18.305 18.305 26.887 18.305 44.050-6.101 31.847-18.305 44.050-26.696 18.305-43.477 18.305zM818.626 728.315c-24.408-8.010-49.008-10.489-73.797-7.437s-48.244 8.391-70.365 16.018c-22.122 7.627-46.531 18.305-73.225 32.035-62.542 38.138-119.751 56.633-171.619 55.49s-98.778-19.64-140.729-55.49l-0.002-416.469c12.968 9.153 25.553 17.162 37.757 24.027 12.204 6.871 24.981 11.632 38.328 14.308 13.347 2.671 25.17 5.146 35.468 7.437s22.693 2.479 37.185 0.572 25.743-3.239 33.752-4.005c8.010-0.762 19.641-3.62 34.897-8.58 15.258-4.958 25.744-8.391 31.466-10.297 5.714-1.907 16.779-5.908 33.18-12.007 16.397-6.105 26.506-9.922 30.32-11.446 114.414-57.963 210.902-57.963 289.466 0v416.461c-23.646-19.069-47.674-32.607-72.082-40.617z" />
<glyph unicode="&#xe927;" glyph-name="flag102" d="M206.067-64l-35.244 0.053 0.869 959.484 5.755 5.232c1.436 1.35 148.713 132.348 302.545 0.372 133.837-114.819 346.321-23.172 348.487-22.215l24.693 10.911v-373.872l-10.539-4.647c-9.543-4.204-235.101-101.444-385.598 27.71-115.98 99.545-224.831 25.193-250.414 4.916l-0.555-607.945z" />
<glyph unicode="&#xe928;" glyph-name="folder265" d="M990.187 650.43c0 0-42.159 0-56.212 0-6.321 0-5.367 9.393-5.367 9.393v28.177c0 36.992-30.096 67.088-67.088 67.088h-458.994c-3.084 0-6.811 6.192-13.505 19.206-0.995 1.932-1.995 3.876-3.015 5.808-23.394 44.33-53.759 53.635-75.111 53.635h-119.416c-30.186 0-48.203-17.537-69.429-52.125-1.381-2.253-2.738-4.539-4.095-6.825-6.841-11.534-11.992-19.702-15.972-19.702h-34.898c-36.992 0-67.088-30.096-67.088-67.088v-557.734c0-32.782 23.641-60.129 54.762-65.934 3.763-1.321 7.891-2.064 12.326-2.064h818.441c22.139 0 43.425 17.833 47.304 39.629l90.553 508.904c3.881 21.799-11.060 39.632-33.199 39.632zM67.091 701.417h34.898c34.857 0 51.272 27.681 62.135 45.996 1.217 2.050 2.434 4.106 3.673 6.129 10.802 17.6 19.244 26.527 29.501 26.527h113.602c3.571 0 14.445 0 27.643-25.014 0.932-1.768 1.845-3.544 2.755-5.312 9.898-19.244 24.861-48.323 61.23-48.323h458.994c7.272 0 13.417-6.145 13.417-13.417v-26.834c0 0 0.836-10.736-5.367-10.736-174.457 0-697.828 0-697.828 0-22.139 0-43.425-17.833-47.304-39.629l-67.332-378.412c0 0-3.437-12.663-3.437 10.819 0 111.198 0 444.79 0 444.79 0 7.272 6.145 13.417 13.42 13.417z" />
<glyph unicode="&#xe929;" glyph-name="fried3" d="M103.772 599.3h27.308l-50.58 138.706 34.353 25.169 59.743-163.875h46.32l-65.181 178.785 42.473 2.857 66.224-181.642h27.308l-21.784 59.743v205.477l40.883-11.866v-253.354h25.649v272.624l-47.637 13.816-41.259 11.403-3.284-0.871-6.601-1.761-77.817-22.588v-52.357l25.649 2.223v30.863l40.885 11.866v-86.109l-10.516 28.844-95.566-8.259-70.532-51.672 6.599-18.091zM770.167 864.707l-64.053 24.178-22.962 7.661-2.991-0.564-15.646-2.89-70.378-14.567-1.504-19.201-25.888-330.007-1.010-12.926c4.6 1.454 9.012 3.147 13.252 5.044 4.737 2.12 9.216 4.514 13.423 7.148l25.785 328.722 41.686 8.635-20.928-266.64h43.655l20.655 263.236 39.822-15.030-19.475-248.206h38.541l58.496 182.085 42.559-1.197-58.102-180.889h45.721l53.828 167.569 35.291-23.802-46.183-143.767h26.93l49.568 154.283-65.368 44.080-11.113 6.889-3.898 0.187-16.364 0.82-71.388 2.017-5.898-18.33-42.302-131.712 14.756 187.986 1.485 19.186zM524.491 510.128c3.437 0 6.839 0.137 10.192 0.36 4.361 0.307 8.618 0.873 12.823 1.573v421.796l-90.556 26.143-1.641-0.496-84.401-25.222v-334.984h25.646v316.656l40.883 11.866v-383.631c3.797-4.087 8.071-7.899 12.823-11.372 1.624-1.197 3.317-2.343 5.044-3.454 2.497-1.607 5.078-3.13 7.781-4.548 1.658-0.89 3.317-1.778 5.044-2.581 4.087-1.914 8.395-3.574 12.823-5.061v410.647l40.883-11.866v-405.739c0.894-0.017 1.765-0.086 2.655-0.086zM915.2 582.2h-268.318c-1.027-12.687-5.267-24.691-12.072-35.548-5.642-9.028-13.132-17.184-21.988-24.349-4.361-3.521-9.012-6.822-14.039-9.782-5.608-3.317-11.559-6.309-17.868-8.858-10.362-4.171-21.595-7.198-33.428-8.942-4.207-0.616-8.482-1.043-12.823-1.317-3.368-0.223-6.755-0.377-10.192-0.377-0.89 0-1.744 0.086-2.634 0.103-14.38 0.24-28.129 2.377-40.883 6.138-4.394 1.3-8.702 2.718-12.823 4.377-1.727 0.7-3.368 1.504-5.044 2.257-2.65 1.197-5.248 2.444-7.781 3.797-1.71 0.907-3.404 1.813-5.044 2.787-4.548 2.684-8.805 5.642-12.823 8.789-20.278 15.867-33.463 37.191-35.361 60.94h-327.306l126.6-646.217h646.217l126.6 646.217-58.992-0.017zM836.597 402.286l-67.131-383.904h-73.765l81.424 465.585h73.78l-6.959-39.772-5.112-29.29-2.238-12.619z" />
<glyph unicode="&#xe92a;" glyph-name="geometry109" d="M704 537.6v0 243.2l-256 115.2-256-115.2v-268.8l-192-83.2v-281.6l256-115.2 224 96 224-102.4 256 115.2v288l-256 108.8zM448 825.6l179.2-76.8-172.8-70.4-166.4 76.8 160 70.4zM448 640v-185.6l-192 83.2v192l192-89.6zM256 96l-192 83.2v192l192-89.6v-185.6zM256 320l-166.4 76.8 166.4 70.4 179.2-76.8-179.2-70.4zM704 96l-192 83.2v192l192-89.6v-185.6zM704 320l-166.4 76.8 166.4 70.4 179.2-76.8-179.2-70.4z" />
<glyph unicode="&#xe92b;" glyph-name="global45" d="M0 448c0-277.949 223.677-504.616 500.48-509.515v98.374c-26.050 7.669-56.387 46.589-79.753 103.526-9.467 23.048-17.713 48.333-24.681 75.385 33.919-3.358 68.896-5.212 104.435-5.484v97.083c-42.526 0.358-83.949 3.121-123.308 8.184-5.419 42.162-8.238 86.7-8.238 132.446 0 45.743 2.819 90.284 8.238 132.446 39.357 5.063 80.783 7.826 123.308 8.179v97.089c-35.538-0.275-70.516-2.126-104.435-5.489 6.969 27.052 15.214 52.337 24.681 75.391 23.366 56.937 53.703 95.852 79.753 103.526v98.374c-276.803-4.904-500.48-231.57-500.48-509.515zM97.070 448c0 27.847 41.189 62.747 104.944 88.905 23.040 9.453 48.335 17.71 75.385 24.684-3.649-36.842-5.546-74.9-5.546-113.589 0-38.694 1.894-76.746 5.546-113.589-27.050 6.969-52.345 15.225-75.385 24.684-63.752 26.158-104.944 61.057-104.944 88.905zM130.67 284.99c10.879-5.473 22.358-10.725 34.487-15.7 38.12-15.643 81.236-28.394 127.763-38.001 9.601-46.53 22.347-89.638 38.001-127.757 4.98-12.137 10.229-23.617 15.702-34.485-96.62 41.709-174.231 119.326-215.954 215.943zM346.624 826.953c-5.473-10.873-10.722-22.353-15.702-34.485-15.654-38.12-28.397-81.227-38.001-127.757-46.53-9.604-89.646-22.364-127.763-38.001-12.129-4.98-23.609-10.232-34.487-15.7 41.723 96.617 119.334 174.226 215.954 215.943zM993.347 356.142l-61.812 35.094c2.603 18.559 3.983 37.5 3.983 56.762 0 19.257-1.38 38.206-3.983 56.759l61.812 35.094c29.071 16.505 39.254 53.447 22.749 82.516l-87.851 154.732c-7.92 13.953-21.073 24.196-36.541 28.459-15.468 4.279-32.013 2.21-45.97-5.71l-61.998-35.204c-31.62 25.5-67.102 46.401-105.453 61.604v71.079c0 33.42-27.093 60.521-60.521 60.521h-79.123v-238.905c144.966-5.201 261.303-124.731 261.303-270.942s-116.337-265.747-261.303-270.948v-238.899h79.123c33.428 0 60.521 27.096 60.521 60.516v71.084c38.351 15.206 73.833 36.101 105.453 61.604l61.998-35.207c9.189-5.214 19.499-7.896 29.885-7.896 5.381 0 10.798 0.717 16.085 2.185 15.468 4.258 28.621 14.506 36.541 28.456l87.851 154.726c16.505 29.071 6.322 66.018-22.749 82.518z" />
<glyph unicode="&#xe92c;" glyph-name="group14" d="M319.956 519.854c0-55.658 20.274-112.022 55.622-154.642 37.172-44.818 85.698-69.502 136.636-69.502 50.932 0 99.398 24.67 136.474 69.464 35.232 42.568 55.438 98.91 55.438 154.582v49.036c14.248 61.358 17.236 114.458 17.214 148.326-0.030 43.728-4.786 73.94-9.226 87.632-2.358 7.274-9.432 11.692-16.744 10.984-1.208 0.108-2.446 0.096-3.7-0.082-29.758-4.252-66.264 3.080-104.916 10.842-62.624 12.574-133.376 26.762-187.488-10.754-0.482 0.044-0.968 0.074-1.462 0.074-30.37 0-57.334-12.136-75.926-34.172-17.174-20.356-26.632-48.362-26.632-78.86 0-49.95 21.248-142.26 24.708-156.962v-25.966zM624.036 385.576c-30.884-37.316-70.598-57.868-111.822-57.868-41.246 0-81.024 20.574-112.006 57.93-30.666 36.974-48.252 85.894-48.252 134.214v19.19c0 39.574 26.574 93.372 36.66 112.362 143.892 16.442 240.204-23.292 262.068-33.524l21.442-50.524v-47.602c0-48.346-17.528-97.252-48.090-134.178zM397.806 783.814c1.16 0 2.29 0.13 3.38 0.366 4.396-0.936 9.156-0.038 13.018 2.894 43.142 32.768 105.728 20.202 166.254 8.046 32.39-6.504 63.374-12.724 92.174-12.724 3.988 0 7.934 0.12 11.838 0.376 4.822-27.094 8.716-85.422-2.128-157.568l-4.518 10.644c-1.408 3.316-3.89 6.058-7.050 7.788-4.596 2.514-114.354 61.158-292.984 38.734-5.238-0.266-10.242-3.086-13.062-7.966-1.024-1.772-14.946-26.084-26.998-57.176-5.47 29.632-10.484 62.956-10.484 85.558 0.002 55.972 35.438 81.028 70.56 81.028zM787.768 260.288c-0.344 0.096-0.692 0.18-1.042 0.254l-95.196 19.912-25.166 38.162c-0.176 0.27-0.364 0.534-0.556 0.792-4.576 6.1-11.542 10.126-19.112 11.046-7.568 0.918-15.298-1.322-21.202-6.152-0.104-0.084-0.208-0.172-0.308-0.258l-113.186-97.434-113.188 97.432c-0.102 0.086-0.204 0.172-0.306 0.258-5.904 4.83-13.634 7.072-21.202 6.154-7.57-0.92-14.538-4.946-19.112-11.046-0.194-0.258-0.38-0.522-0.556-0.792l-25.166-38.162-95.196-19.912c-0.35-0.074-0.698-0.158-1.042-0.254-27.68-7.754-51.228-24.916-68.1-49.63-15.392-22.544-23.868-49.76-23.868-76.634v-30.082c0-26.39 23.5-47.862 52.386-47.862h278.92c0.020 0 0.040-0.002 0.060-0.002 0.022 0 0.044 0.002 0.066 0.002h72.606c0.022 0 0.044-0.002 0.066-0.002 0.020 0 0.040 0.002 0.060 0.002h278.92c28.886 0 52.386 21.47 52.386 47.862v30.082c0 26.876-8.476 54.090-23.868 76.634-16.868 24.712-40.418 41.874-68.098 49.63zM642.482 296.706l19.864-30.12-79.498-109.308-47.342 47.34 106.976 92.088zM501.504 119.948h20.992l6.374-31.87h-33.74l6.374 31.87zM528 160.714c0-5.268-3.21-8.764-5.334-8.764h-21.334c-2.124 0-5.334 3.496-5.334 8.764v6.158l16 16 16-16v-6.158zM381.518 296.706l106.976-92.086-47.342-47.34-79.498 109.308 19.864 30.118zM176.262 103.942v30.082c0 37.744 23.392 82.504 68.108 95.312l90.972 19.028 90.944-125.048c2.752-3.786 7.022-6.174 11.688-6.542 0.418-0.034 0.836-0.048 1.252-0.048 4.226 0 8.3 1.674 11.312 4.686l18.658 18.658c0.846-1.564 1.776-3.064 2.8-4.484l-9.5-47.504h-265.846c-11.052-0.002-20.388 7.262-20.388 15.86zM847.738 103.942c0-8.598-9.336-15.862-20.386-15.862h-265.848l-9.5 47.504c1.024 1.42 1.954 2.92 2.8 4.484l18.658-18.658c3.012-3.012 7.086-4.686 11.312-4.686 0.416 0 0.834 0.016 1.252 0.048 4.666 0.366 8.936 2.756 11.688 6.542l90.944 125.048 90.972-19.028c44.716-12.808 68.108-57.568 68.108-95.312v-30.080zM128.33 489.842c0-38.874 13.228-75.354 37.246-102.722 24.378-27.778 56.934-43.076 91.668-43.076 26.042 0 51.114 8.692 72.508 25.134 7.006 5.384 8.32 15.43 2.934 22.436s-15.426 8.322-22.436 2.936c-15.75-12.106-34.080-18.506-53.006-18.506-53.44 0-96.916 51.050-96.916 113.798v9.404c0 25.288 10.458 58.764 15.938 74.576 34.532 3.060 65.368-1.468 90.552-5.188l2.854-0.42c0.792-0.116 1.576-0.172 2.352-0.172 7.804 0 14.638 5.718 15.808 13.672 1.288 8.742-4.756 16.872-13.498 18.16l-2.842 0.418c-29.404 4.344-65.99 9.744-108.726 4.272-0.050-0.006-0.102-0.010-0.152-0.018-0.006 0-0.012 0-0.018-0.002-0.056-0.006-0.11-0.022-0.166-0.030-0.458-0.064-0.914-0.142-1.364-0.246-0.254-0.058-0.498-0.136-0.746-0.206-0.246-0.070-0.492-0.13-0.734-0.21-0.314-0.104-0.616-0.228-0.92-0.35-0.17-0.070-0.344-0.13-0.514-0.206-0.31-0.138-0.61-0.292-0.908-0.45-0.16-0.084-0.322-0.16-0.48-0.25-0.274-0.154-0.534-0.324-0.798-0.494-0.178-0.116-0.358-0.224-0.532-0.346-0.22-0.156-0.43-0.324-0.64-0.488-0.204-0.16-0.41-0.314-0.606-0.484-0.168-0.144-0.324-0.298-0.484-0.45-0.222-0.208-0.444-0.414-0.654-0.634-0.13-0.138-0.25-0.284-0.376-0.424-0.218-0.248-0.438-0.492-0.642-0.754-0.12-0.152-0.226-0.314-0.34-0.47-0.186-0.258-0.376-0.514-0.548-0.786-0.142-0.222-0.268-0.458-0.398-0.688-0.122-0.216-0.252-0.424-0.366-0.648-0.216-0.426-0.412-0.864-0.59-1.308-0.016-0.038-0.034-0.074-0.050-0.112 0-0.002-0.004-0.012-0.006-0.014-0.014-0.038-0.028-0.074-0.042-0.11-0.278-0.714-1.432-3.704-3.078-8.374-1.278 10.174-2.116 19.756-2.116 27.432 0 34.582 16.688 50.062 33.228 50.062 0.782 0 1.544 0.074 2.296 0.182 0.758-0.11 1.522-0.184 2.292-0.184 3.374 0 6.774 1.062 9.666 3.26 14.934 11.344 34.2 15.156 62.46 12.366 8.786-0.876 16.626 5.556 17.496 14.35 0.868 8.792-5.556 16.626-14.35 17.494-21.684 2.142-53.070 2.71-80.382-15.484-38.122-0.308-64.704-33.954-64.704-82.048 0-33.696 13.284-95.106 15.83-106.566v-17.034zM112 200.042h-71.226c-5.022 0-8.774 3.004-8.774 5.692v20.482c0 23.73 14.594 51.84 42.496 59.93l58.264 12.188 30.090-43.408c3.108-4.482 8.092-6.886 13.164-6.886 3.144 0 6.322 0.926 9.1 2.852 7.262 5.034 9.068 15.002 4.034 22.264l-29.968 43.234 8.85 13.42 62.398-46.588c7.082-5.288 17.106-3.832 22.392 3.248 5.288 7.080 3.834 17.106-3.248 22.392l-68.486 51.132c-5.042 3.97-11.55 5.798-17.932 5.026-6.528-0.792-12.536-4.264-16.482-9.526-0.194-0.258-0.378-0.522-0.556-0.792l-15.976-24.226-62.752-13.126c-0.35-0.074-0.698-0.158-1.042-0.254-43.556-12.2-66.346-54.954-66.346-90.88v-20.482c0-20.784 18.292-37.692 40.774-37.692h71.226c8.836 0 16 7.164 16 16s-7.164 16-16 16zM751.68 696.046c23.524-0.47 49.532-4.68 74.686-8.75 19.004-3.074 37.208-5.992 53.016-7.008-0.558-37.888-3.042-71.96-5.862-99.394-0.032 0.024-0.066 0.044-0.098 0.068-0.252 0.184-0.512 0.356-0.774 0.524-0.122 0.078-0.23 0.166-0.354 0.24-0.138 0.084-0.282 0.162-0.422 0.246-0.018 0.010-0.036 0.022-0.056 0.032-32.018 19.284-70.822 30.41-118.62 33.994-8.82 0.668-16.49-5.948-17.152-14.758-0.662-8.812 5.946-16.492 14.758-17.152 40.77-3.058 73.78-12.010 100.736-27.304 3.79-8.938 12.132-31.56 12.132-57.538v-9.404c0-62.75-43.476-113.798-96.916-113.798-18.926 0-37.254 6.4-53.006 18.506-7.006 5.384-17.052 4.070-22.436-2.936s-4.072-17.050 2.934-22.436c21.394-16.444 46.466-25.134 72.508-25.134 34.736 0 67.292 15.298 91.668 43.076 24.018 27.37 37.246 63.85 37.246 102.722v17.292c2.248 11.96 15.458 86.444 15.812 184.888 0.41 1.578 0.59 3.244 0.49 4.96-0.502 8.538-7.62 15.102-16.070 15.040-0.134 0.004-0.266 0.020-0.402 0.020-0.31 0-0.612-0.030-0.918-0.046-15.484-0.804-38.616 2.928-63.106 6.89-25.022 4.048-53.382 8.638-79.156 9.152-8.892 0.214-16.14-6.842-16.318-15.676-0.174-8.834 6.846-16.14 15.68-16.316zM957.656 317.098c-0.344 0.096-0.692 0.18-1.042 0.254l-62.752 13.126-15.976 24.226c-0.178 0.268-0.364 0.532-0.556 0.792-3.946 5.262-9.954 8.734-16.482 9.526-6.386 0.772-12.89-1.054-17.932-5.026l-68.486-51.132c-7.082-5.286-8.536-15.312-3.248-22.392 5.288-7.082 15.314-8.536 22.392-3.248l62.398 46.588 8.85-13.42-29.97-43.232c-5.034-7.262-3.228-17.23 4.034-22.264 2.78-1.926 5.956-2.852 9.1-2.852 5.070 0 10.056 2.404 13.164 6.886l30.090 43.408 58.264-12.188c27.9-8.090 42.496-36.202 42.496-59.93v-20.482c0-2.686-3.752-5.692-8.774-5.692h-71.226c-8.836 0-16-7.164-16-16s7.164-16 16-16h71.226c22.482 0 40.774 16.908 40.774 37.692v20.482c0 35.922-22.79 78.676-66.344 90.878z" />
<glyph unicode="&#xe92d;" glyph-name="healthclinic2" d="M288.171 401.834l88.534 175.617 64.554-192.341 98.773 318.464 78.081-387.157 68.822 85.333 209.92 0.042c52.992 72.021 82.603 141.867 82.603 217.771 0 143.872-112.213 255.105-257.11 255.105-79.446 0-158.933-37.121-210.346-97.365-51.414 60.246-130.902 97.365-210.346 97.365-144.895 0-257.11-111.232-257.11-255.061 0-59.563 18.474-115.499 52.011-171.605h-96.556v-46.165h288.171zM1024 355.627h-325.845l-93.099-115.457-74.539 275.455-88.363-229.291-69.845 184.747-55.424-115.457h-152.787c69.632-81.365 166.229-167.381 282.538-269.356l65.365-64.938 65.365 64.938c94.678 82.986 175.403 155.264 240 223.189h206.636v46.168z" />
<glyph unicode="&#xe92e;" glyph-name="heart8" d="M585.408 293.706l-63.553-165.509c-3.399-8.856-11.875-14.714-21.331-14.794-0.080 0-0.14 0-0.22 0-9.396 0-17.852 5.698-21.391 14.474l-172.866 428.736-61.913-127.365c-3.838-7.937-11.915-12.954-20.751-12.954h-148.736c1.699-2.899 3.019-5.718 4.778-8.636l40.143-57.895c9.976-12.914 20.791-25.649 32.606-38.463 134.302-144.878 226.783-252.152 284.058-321.042 41.242-49.759 106.194-50.378 147.577-0.74 54.736 66.052 141.959 168.128 266.645 304.229l-265.046-0.040zM755.935 943.387c-69.45-0.14-132.843-26.888-180.382-70.43-47.56-43.901-85.503-43.901-133.323-0.24-47.7 43.421-110.972 69.95-180.542 69.69-107.294-0.1-199.634-63.373-242.076-154.494-27.248-58.655-23.13-166.408-5.738-228.722 8.316-29.807 20.651-63.753 37.664-99.317 3.059 1.499 6.397 2.519 10.056 2.519h147.417l78.326 161.111c3.998 8.196 13.454 13.514 21.531 12.934 9.136-0.32 17.193-5.957 20.631-14.414l170.367-422.578 48.199 125.566c3.439 8.896 11.995 14.774 21.551 14.774h298.032c6.217 0 11.835-2.519 15.973-6.497 7.057 9.616 15.453 21.311 23.81 33.026 21.631 30.027 66.411 99.637 87.322 160.811 29.247 85.883 29.247 149.176 29.247 149.176-0.3 147.856-120.388 267.445-268.065 267.085z" />
<glyph unicode="&#xe92f;" glyph-name="heart296" d="M940.8 812.688c-53.729 53.732-125.156 83.3-201.144 83.3-75.999 0-147.433-29.568-201.182-83.3l-26.477-26.482-26.477 26.482c-53.732 53.732-125.183 83.3-201.165 83.3-75.98 0-147.436-29.568-201.163-83.3-110.926-110.936-110.926-291.435 0-402.328l397.478-397.48c6.499-6.523 14.59-10.517 23.042-12.055 2.835-0.559 5.686-0.819 8.542-0.819 11.244 0 22.507 4.289 31.071 12.874l397.478 397.48c110.931 110.893 110.931 291.392-0.003 402.328zM878.658 472.499l-366.658-366.664-366.666 366.664c-76.658 76.647-76.658 201.357 0 278.045 37.132 37.127 86.519 57.548 139.021 57.548 52.508 0 101.881-20.421 139-57.548l57.572-57.591c16.503-16.478 45.66-16.478 62.16 0l57.55 57.591c37.121 37.127 86.497 57.548 139.021 57.548 52.508 0 101.878-20.421 139-57.548 76.666-76.688 76.666-201.395 0-278.045z" />
<glyph unicode="&#xe930;" glyph-name="home4" d="M1006.813 493.857l-155.192 155.192v179.273c0 32.415-26.268 58.685-58.73 58.685-32.388 0-58.656-26.27-58.656-58.685v-61.889l-115.553 115.557c-57.131 57.099-156.461 56.998-213.462-0.103l-388.038-388.030c-22.907-22.952-22.907-60.090 0-83.008 22.917-22.946 60.128-22.946 83.037 0l388.001 388.041c12.64 12.574 34.918 12.574 47.492 0.037l388.067-388.078c11.507-11.474 26.51-17.181 41.508-17.181 15.029 0 30.057 5.713 41.529 17.181 22.915 22.915 22.915 60.053-0.002 83.008zM532.385 687.492c-11.274 11.267-29.527 11.267-40.768 0l-341.32-341.218c-5.389-5.387-8.444-12.741-8.444-20.416v-248.872c0-58.4 47.351-105.749 105.749-105.749h168.988v261.706h190.784v-261.706h168.99c58.396 0 105.747 47.349 105.747 105.747v248.874c0 7.675-3.028 15.029-8.444 20.416l-341.282 341.218z" />
<glyph unicode="&#xe931;" glyph-name="home168" d="M139.237 17.253c0 0-0.91-22.89 21.45-22.89 27.817 0 258.122 0.303 258.122 0.303l0.379 211.508c0 0-3.638 34.866 30.205 34.866h107.099c40.020 0 37.557-34.866 37.557-34.866l-0.455-210.826c0 0 218.367 0 252.665 0 28.385 0 27.097 28.499 27.097 28.499v389.931l-356.088 316.75-378.031-316.75c0 0 0-396.525 0-396.525zM0 443.263c0 0 32.099-59.159 102.097 0l418.317 353.89 392.205-351.692c81.026-58.438 111.382 0 111.382 0l-503.587 456.176-520.413-458.375zM903.106 797.987h-100.884l0.417-122.334 100.467-85.232z" />
<glyph unicode="&#xe932;" glyph-name="hot51" d="M130.263-19.571h139.432c1.938-12.147 12.005-21.647 24.72-21.647h317.008c12.762 0 22.782 9.453 24.72 21.647h139.432c23.585 0 42.68 19.095 42.68 42.68h-730.625c0-23.585 19.095-42.68 42.633-42.68zM986.188 419.097c-35.543 28.784-85.597 29.257-118.541 25.618 0.945 22.971 1.465 46.462 1.465 70.898h-869.112c0-234.908 35.543-404.401 260.478-467.642h348.155c89.095 25.003 148.176 67.022 187.359 122.889 85.361 1.654 222.666 35.26 227.818 153.139 2.221 51.614-19.237 80.256-37.623 95.098zM831.773 238.261c16.354 42.019 26.043 89.284 31.384 141.228 23.065 3.781 62.815 6.192 82.903-10.162 3.687-3.025 15.172-12.383 13.849-42.586-2.694-61.067-78.507-81.58-128.136-88.48zM354.063 548.604c0 0 165.428 12.147 89.615 151.627-60.878 111.971-46.982 177.67 30.911 237.035 0 0-255.137-64.99-106.347-266.103 54.591-87.63-14.18-122.559-14.18-122.559zM465.562 559.759c0 0 132.532 27.934 60.405 134.517-26.185 46.225 9.926 62.721 9.926 62.721s-85.314-2.694-49.298-76.002c28.832-58.94 20.277-92.403-21.033-121.235z" />
<glyph unicode="&#xe933;" glyph-name="hotdrink2" d="M760.271 137.085c169.503 6.815 244.842 83.962 244.842 178.375 0 82.009-56.91 151.011-182.967 172.204 0.561 30.501 0.603 59.922 0.603 87.39h-803.862c0-179.601 0.208-440.484 161.566-565.087-97.925-7.501-161.566-19.427-161.566-32.849 0-22.731 179.954-41.119 401.941-41.119s401.921 18.388 401.921 41.119c0 13.422-63.642 25.369-161.545 32.849 43.799 33.805 75.817 77.563 99.067 127.117zM819.154 409.562c70.727-16.393 83.359-51.071 82.549-95.971-0.893-50.988-15.666-85.5-112.24-97.384 17.474 62.062 25.743 128.696 29.691 193.356zM115.918 512.722h125.663c-56.328-166.22 38.709-429.222 38.688-429.222-205.448 157.473-164.35 429.222-164.35 429.222zM486.589 683.389c15.978 144.778 335.62 72.347 269.007 260.301-10.181 28.735-56.203 16.352-45.918-12.654 29.213-82.404-81.78-92.439-138.295-111.326-67.88-22.689-124.063-60.629-132.415-136.321-3.366-30.501 44.298-30.169 47.622 0zM713.48 784.7c-62.333-14.69-119.305-41.389-138.732-106.921-8.747-29.525 37.213-42.033 45.918-12.654 21.442 72.368 116.5 73.573 177.191 91.193 65.179 18.928 102.475 64.078 93.52 133.392-3.906 30.024-51.528 30.398-47.622 0 10.825-83.817-66.301-89.904-130.275-105.010z" />
<glyph unicode="&#xe934;" glyph-name="html4" d="M61.433 960l81.915-920.337 367.368-103.663 369.923 103.663 81.926 920.337h-901.132zM784.638 659.833h-431.363l9.601-115.84h412.165l-31.995-348.164-229.768-63.349v-0.643h-2.562l-231.689 63.993-14.078 177.914h112.005l8.319-89.601 125.441-33.907 126.082 33.907 14.084 145.925h-391.688l-30.079 341.764h565.777l-10.253-111.998z" />
<glyph unicode="&#xe935;" glyph-name="label36" d="M875.128-64c-11.11 0-21.938 4.827-29.387 13.653l-333.743 395.702-333.743-395.702c-10.403-12.34-27.41-16.85-42.563-11.323-15.156 5.54-25.24 19.958-25.24 36.095v947.146c0 21.222 17.207 38.428 38.428 38.428h726.235c21.219 0 38.428-17.207 38.428-38.428v-947.14c0-16.137-10.084-30.555-25.24-36.095-4.31-1.574-8.768-2.336-13.176-2.336zM511.998 443.39c11.326 0 22.073-4.996 29.375-13.653l295.318-350.138v803.544h-649.382v-803.544l295.315 350.138c7.301 8.657 18.049 13.653 29.375 13.653z" />
<glyph unicode="&#xe936;" glyph-name="labels2" d="M996.21 960h-389.689c-7.111 0-14.222-2.844-19.911-8.533l-577.422-576c-11.378-11.378-11.378-29.867 0-39.822l389.689-391.111c11.378-11.378 28.444-11.378 39.822 0l576 576c5.689 5.689 8.533 12.8 8.533 19.911v391.111c1.422 15.644-11.378 28.444-27.022 28.444zM967.765 553.244l-547.556-548.978-351.289 349.867 548.978 548.978h349.867v-349.867zM768.654 819.2c-62.578 0-113.778-51.2-113.778-113.778s51.2-113.778 113.778-113.778 113.778 51.2 113.778 113.778-51.2 113.778-113.778 113.778zM808.476 664.178c-21.333-21.333-59.733-21.333-81.067 0-22.756 22.756-22.756 58.311 0 81.067s58.311 22.756 81.067 0c22.756-22.756 22.756-58.311 0-81.067z" />
<glyph unicode="&#xe937;" glyph-name="lamp26" d="M512.001 960c-187.069 0-339.261-144.589-339.261-322.315 0-123.906 47.997-194.262 94.437-262.335 38.173-55.927 77.596-113.749 81.021-191.404h327.813c3.442 77.594 42.794 135.394 80.926 191.353 46.376 68.041 94.324 138.394 94.324 262.382 0 177.731-152.193 322.32-339.259 322.32zM675.782 430.606c-28.048-41.166-60.729-89.126-80.432-148.453h-166.477c-19.72 59.386-52.472 107.373-80.57 148.544-43.219 63.346-77.356 113.383-77.356 206.988 0 123.572 108.137 224.108 241.053 224.108s241.051-100.535 241.051-224.108c0-93.705-34.098-143.734-77.27-207.078zM351.726 55.413c0-23.14 18.76-41.895 41.9-41.895h25.61c7.913-44.071 46.418-77.518 92.765-77.518 46.342 0 84.851 33.447 92.762 77.518h25.613c23.143 0 41.9 18.76 41.9 41.895v70.697h-320.55v-70.697z" />
<glyph unicode="&#xe938;" glyph-name="leaf32" d="M768.282 960c0 0-84.25-81.739-175.368-114.694-674.753-244.061-390.181-719.668-380.897-721.235 0 0 37.837 65.891 88.949 103.473 324.335 238.434 390.255 512.883 390.255 512.883s-72.781-330.25-361.325-535.741c-63.729-45.362-106.881-157.053-125.148-268.686 0 0 45.174 18.252 64.6 23.195 7.575 49.433 23.413 96.767 50.189 139.052 403.276-48.014 535.356 276.94 552.611 390.248 40.725 267.611-103.865 471.505-103.865 471.505z" />
<glyph unicode="&#xe939;" glyph-name="location38" d="M820.285 347.743c0.067 0.104 0.139 0.2 0.208 0.302 0.565 0.956-0.253-0.346-0.208-0.302zM820.488 553.397c-0.059 0.112-0.126 0.214-0.192 0.326 0.13-0.23 0.291-0.518 0.41-0.732-0.075 0.135-0.147 0.269-0.218 0.406zM827.618 847.623c0.799 0.948-0.817-0.94 0 0v0zM596.837 178.669c0.526 0.24 0.399 0.181 0 0v0zM949.435 921.13c-2.393 4.9-4.785 9.801-7.176 14.705-8.132-4.205-16.029-8.87-23.801-13.702-4.419-2.751-8.788-5.584-13.121-8.47l-5.713-3.864c-1.751 2.656-3.508 5.309-5.254 7.969l5.641 3.483c4.673 2.839 9.383 5.625 14.142 8.311 8.124 4.594 16.38 9.008 24.842 12.938-1.624 3.332-3.253 6.664-4.881 9.995-0.964 1.979-1.926 3.952-2.894 5.927-0.748 1.533-0.469 1.908-2.122 1.31-14.819-5.35-29.33-11.515-43.523-18.339-34.25-16.464-67.552-36.573-96.315-61.531-29.85-25.898-56.361-55.804-74.54-91.145-18.226-35.44-27.805-74.426-28.354-114.26-0.271-20.079 2.336-39.785 5.994-59.479 3.705-19.955 10.437-38.974 17.356-57.993 4.724-13.72 12.149-26.399 17.336-39.954 3.375-8.821 5.831-17.695 7.94-26.874 1.942-8.454 2.309-17.876 1.31-26.483-0.978-8.444-3.846-15.762-8.109-23.042-4.478-7.639-11.309-14.24-17.837-20.13-6.907-6.234-14.322-11.868-22.036-17.061-32.896-22.125-70.354-37.236-107.814-49.664-1.209-0.401-2.421-0.772-3.63-1.166l-76.99-158.776c1.056 0.351 2.116 0.681 3.171 1.035 18.548 6.173 36.995 12.667 55.238 19.708 7.828 3.020 15.608 6.143 23.381 9.31 0.638 0.263 2.14 0.913 2.14 0.913s1.009-2.476 1.461-3.495c3.95-8.959 7.893-17.909 11.845-26.868 1.63-3.695 3.263-7.396 4.889-11.087 0.281-0.638 0.558-1.282 0.844-1.916 0.012-0.035-5.564-2.57-6.715-3.092 0.263 0.122 0.51 0.232 0.705 0.324-0.204-0.096-0.479-0.22-0.905-0.416-30.602-14.030-61.884-26.593-93.527-38.057-11.385-4.123-22.837-8.069-34.315-11.927l-91.762-189.239c13.928 5.024 27.775 10.27 41.558 15.587 36.724 14.183 73.012 29.515 108.745 46.036 72.623 33.573 143.393 72.001 208.489 118.685 62.212 44.87 120.906 98.274 159.583 165.316 19.417 33.663 33.573 70.888 38.874 109.501 5.421 39.453 1.704 79.872-10.574 117.743-8.093 24.966-19.653 49.122-34.15 71.031-6.436 9.728-13.215 19.095-20.273 28.37-4.009 5.258-8.419 10.215-12.766 15.194-6.532 7.488-11.902 16.017-17.24 24.361-9.051 14.142-15.707 30.296-18.995 46.764-4.060 20.326-2.623 40.678 2.727 60.612 10.262 38.23 34.409 72.227 61.008 100.921 16.347 17.642 34.28 33.883 53.344 48.543 3.801 2.927 7.655 5.788 11.568 8.558 3.049 2.171 2.727 1.749 1.198 4.879zM821.53 349.887c0 0-0.41-0.777-1.039-1.84-0.147-0.222-0.196-0.293-0.208-0.302-17.089-25.934-37.203-48.771-60.653-69.178-22.101-19.235-46.152-35.817-70.907-51.402-7.317 12.459-14.633 24.924-21.95 37.386 31.026 17.766 61.205 37.299 87.39 61.827 12.901 12.090 24.349 25.242 34.702 39.555l2.44 3.192 30.225-19.237zM820.301 553.723c-0.247 0.442-0.367 0.66 0.192-0.326 0.518-0.935 0.438-0.797 0.214-0.406 17.69-32.104 29.835-67.607 29.682-104.594-10.692 0.204-21.388 0.41-32.079 0.613 1.345 27.451-5.809 54.73-16.79 79.707-6.078 13.828-13.79 26.833-21.284 39.922-6.477 11.297-12.108 22.816-17.582 34.623 4.156 1.875 8.311 3.75 12.467 5.621 2.672 1.202 10.17 4.618 10.17 4.618l0.677-1.416c4.92-9.497 9.978-18.705 15.612-27.797 6.298-10.162 12.85-20.157 18.722-30.565zM827.618 847.623c-18.601-21.428-35.257-44.11-46.896-70.15-10.887-24.373-17.073-50.832-16.643-77.571-6.934 0.1-13.873 0.2-20.811 0.298 1.031 35.607 12.345 70.11 30.538 100.613 9.243 15.504 20.185 29.77 31.988 43.397 2.843 3.283 5.892 6.393 8.876 9.546 1.074 1.131 4.368 4.794 4.368 4.794s6.748-6.536 9.752-9.414c0.041-0.037 0.071-0.071 0.112-0.108-0.448-0.448-0.874-0.919-1.284-1.404zM593.476 531.781c0 143.378-116.645 260.025-260.023 260.025-143.376 0-260.021-116.647-260.021-260.025 0-42.015 10.029-81.727 27.799-116.889l232.222-478.892 232.259 478.967c17.748 35.144 27.765 74.832 27.765 116.814zM333.453 387.891c-79.344 0-143.896 64.548-143.896 143.892 0 79.346 64.554 143.898 143.896 143.898s143.896-64.554 143.896-143.898c-0.002-79.344-64.554-143.892-143.896-143.892z" />
</font>
</defs>
</svg>
